ffmpeg version 7.0.2-static https://johnvansickle.com/ffmpeg/  Copyright (c) 2000-2024 the FFmpeg developers
  built with gcc 8 (Debian 8.3.0-6)
  configuration: --enable-gpl --enable-version3 --enable-static --disable-debug --disable-ffplay --disable-indev=sndio --disable-outdev=sndio --cc=gcc --enable-fontconfig --enable-frei0r --enable-gnutls --enable-gmp --enable-libgme --enable-gray --enable-libaom --enable-libfribidi --enable-libass --enable-libvmaf --enable-libfreetype --enable-libmp3lame --enable-libopencore-amrnb --enable-libopencore-amrwb --enable-libopenjpeg --enable-librubberband --enable-libsoxr --enable-libspeex --enable-libsrt --enable-libvorbis --enable-libopus --enable-libtheora --enable-libvidstab --enable-libvo-amrwbenc --enable-libvpx --enable-libwebp --enable-libx264 --enable-libx265 --enable-libxml2 --enable-libdav1d --enable-libxvid --enable-libzvbi --enable-libzimg
  libavutil      59.  8.100 / 59.  8.100
  libavcodec     61.  3.100 / 61.  3.100
  libavformat    61.  1.100 / 61.  1.100
  libavdevice    61.  1.100 / 61.  1.100
  libavfilter    10.  1.100 / 10.  1.100
  libswscale      8.  1.100 /  8.  1.100
  libswresample   5.  1.100 /  5.  1.100
  libpostproc    58.  1.100 / 58.  1.100
Input #0, mov,mp4,m4a,3gp,3g2,mj2, from '/home/yuan0165/yyh/Monitoring-Agent/src/streaming/fire.mp4':
  Metadata:
    major_brand     : isom
    minor_version   : 512
    compatible_brands: isomdby1iso2avc1mp41
    encoder         : Lavf61.1.100
  Duration: 00:00:26.54, start: 0.000000, bitrate: 6373 kb/s
  Stream #0:0[0x1](und): Video: h264 (High 10) (avc1 / 0x31637661), yuv420p10le(tv, bt2020nc/bt2020/arib-std-b67, progressive), 1920x1080, 6239 kb/s, 29.97 fps, 29.97 tbr, 30k tbn (default)
      Metadata:
        handler_name    : Core Media Video
        vendor_id       : [0][0][0][0]
        encoder         : Lavc61.3.100 libx264
      Side data:
        DOVI configuration record: version: 1.0, profile: 8, level: 4, rpu flag: 1, el flag: 0, bl flag: 1, compatibility id: 4
        Ambient Viewing Environment, ambient_illuminance=314.000000, ambient_light_x=0.312700, ambient_light_y=0.329000
  Stream #0:1[0x2](und): Audio: aac (LC) (mp4a / 0x6134706D), 44100 Hz, stereo, fltp, 128 kb/s (default)
      Metadata:
        handler_name    : Core Media Audio
        vendor_id       : [0][0][0][0]
Stream mapping:
  Stream #0:0 -> #0:0 (h264 (native) -> h264 (libx264))
  Stream #0:1 -> #0:1 (aac (native) -> aac (native))
Press [q] to stop, [?] for help
[libx264 @ 0xdc4d4c0] using cpu capabilities: MMX2 SSE2Fast SSSE3 SSE4.2 AVX FMA3 BMI2 AVX2
[libx264 @ 0xdc4d4c0] profile Constrained Baseline, level 4.0, 4:2:0, 8-bit
[libx264 @ 0xdc4d4c0] 264 - core 164 r3191 4613ac3 - H.264/MPEG-4 AVC codec - Copyleft 2003-2024 - http://www.videolan.org/x264.html - options: cabac=0 ref=1 deblock=0:0:0 analyse=0:0 me=dia subme=0 psy=1 psy_rd=1.00:0.00 mixed_ref=0 me_range=16 chroma_me=1 trellis=0 8x8dct=0 cqm=0 deadzone=21,11 fast_pskip=1 chroma_qp_offset=0 threads=4 lookahead_threads=4 sliced_threads=1 slices=4 nr=0 decimate=1 interlaced=0 bluray_compat=0 constrained_intra=0 bframes=0 weightp=0 keyint=250 keyint_min=25 scenecut=0 intra_refresh=0 rc=crf mbtree=0 crf=23.0 qcomp=0.60 qpmin=0 qpmax=69 qpstep=4 ip_ratio=1.40 aq=0
Output #0, rtsp, to 'rtsp://127.0.0.1:8554/mystream':
  Metadata:
    major_brand     : isom
    minor_version   : 512
    compatible_brands: isomdby1iso2avc1mp41
    encoder         : Lavf61.1.100
  Stream #0:0(und): Video: h264, yuv420p(tv, bt2020nc/bt2020/arib-std-b67, progressive), 1920x1080, q=2-31, 29.97 fps, 90k tbn (default)
      Metadata:
        handler_name    : Core Media Video
        vendor_id       : [0][0][0][0]
        encoder         : Lavc61.3.100 libx264
      Side data:
        cpb: bitrate max/min/avg: 0/0/0 buffer size: 0 vbv_delay: N/A
        DOVI configuration record: version: 1.0, profile: 8, level: 4, rpu flag: 1, el flag: 0, bl flag: 1, compatibility id: 4
        Ambient Viewing Environment, ambient_illuminance=314.000000, ambient_light_x=0.312700, ambient_light_y=0.329000
  Stream #0:1(und): Audio: aac (LC), 44100 Hz, stereo, fltp, 128 kb/s (default)
      Metadata:
        handler_name    : Core Media Audio
        vendor_id       : [0][0][0][0]
        encoder         : Lavc61.3.100 aac
frame=   26 fps=0.0 q=24.0 size=N/A time=00:00:00.86 bitrate=N/A speed=1.73x    frame=   41 fps= 41 q=25.0 size=N/A time=00:00:01.36 bitrate=N/A speed=1.37x    frame=   56 fps= 37 q=26.0 size=N/A time=00:00:01.86 bitrate=N/A speed=1.25x    frame=   71 fps= 35 q=24.0 size=N/A time=00:00:02.36 bitrate=N/A speed=1.18x    frame=   86 fps= 34 q=25.0 size=N/A time=00:00:02.86 bitrate=N/A speed=1.15x    frame=  101 fps= 34 q=24.0 size=N/A time=00:00:03.37 bitrate=N/A speed=1.12x    frame=  116 fps= 33 q=25.0 size=N/A time=00:00:03.87 bitrate=N/A speed=1.11x    frame=  131 fps= 33 q=25.0 size=N/A time=00:00:04.37 bitrate=N/A speed=1.09x    frame=  146 fps= 32 q=24.0 size=N/A time=00:00:04.87 bitrate=N/A speed=1.08x    frame=  161 fps= 32 q=25.0 size=N/A time=00:00:05.37 bitrate=N/A speed=1.07x    frame=  176 fps= 32 q=24.0 size=N/A time=00:00:05.87 bitrate=N/A speed=1.07x    frame=  191 fps= 32 q=24.0 size=N/A time=00:00:06.37 bitrate=N/A speed=1.06x    frame=  206 fps= 32 q=24.0 size=N/A time=00:00:06.87 bitrate=N/A speed=1.06x    frame=  221 fps= 32 q=24.0 size=N/A time=00:00:07.37 bitrate=N/A speed=1.05x    frame=  236 fps= 31 q=24.0 size=N/A time=00:00:07.87 bitrate=N/A speed=1.05x    frame=  251 fps= 31 q=21.0 size=N/A time=00:00:08.37 bitrate=N/A speed=1.05x    frame=  266 fps= 31 q=24.0 size=N/A time=00:00:08.87 bitrate=N/A speed=1.04x    frame=  281 fps= 31 q=23.0 size=N/A time=00:00:09.37 bitrate=N/A speed=1.04x    frame=  296 fps= 31 q=24.0 size=N/A time=00:00:09.87 bitrate=N/A speed=1.04x    frame=  311 fps= 31 q=23.0 size=N/A time=00:00:10.37 bitrate=N/A speed=1.04x    frame=  326 fps= 31 q=25.0 size=N/A time=00:00:10.87 bitrate=N/A speed=1.04x    frame=  341 fps= 31 q=23.0 size=N/A time=00:00:11.37 bitrate=N/A speed=1.03x    frame=  356 fps= 31 q=23.0 size=N/A time=00:00:11.87 bitrate=N/A speed=1.03x    frame=  371 fps= 31 q=23.0 size=N/A time=00:00:12.37 bitrate=N/A speed=1.03x    frame=  386 fps= 31 q=24.0 size=N/A time=00:00:12.87 bitrate=N/A speed=1.03x    frame=  401 fps= 31 q=24.0 size=N/A time=00:00:13.38 bitrate=N/A speed=1.03x    frame=  416 fps= 31 q=24.0 size=N/A time=00:00:13.88 bitrate=N/A speed=1.03x    frame=  431 fps= 31 q=23.0 size=N/A time=00:00:14.38 bitrate=N/A speed=1.03x    frame=  446 fps= 31 q=24.0 size=N/A time=00:00:14.88 bitrate=N/A speed=1.03x    frame=  461 fps= 31 q=23.0 size=N/A time=00:00:15.38 bitrate=N/A speed=1.03x    frame=  476 fps= 31 q=24.0 size=N/A time=00:00:15.88 bitrate=N/A speed=1.02x    frame=  491 fps= 31 q=23.0 size=N/A time=00:00:16.38 bitrate=N/A speed=1.02x    frame=  506 fps= 31 q=23.0 size=N/A time=00:00:16.88 bitrate=N/A speed=1.02x    frame=  521 fps= 31 q=23.0 size=N/A time=00:00:17.38 bitrate=N/A speed=1.02x    frame=  536 fps= 31 q=23.0 size=N/A time=00:00:17.88 bitrate=N/A speed=1.02x    frame=  551 fps= 31 q=22.0 size=N/A time=00:00:18.38 bitrate=N/A speed=1.02x    frame=  566 fps= 31 q=23.0 size=N/A time=00:00:18.88 bitrate=N/A speed=1.02x    frame=  581 fps= 31 q=23.0 size=N/A time=00:00:19.38 bitrate=N/A speed=1.02x    frame=  595 fps= 31 q=23.0 size=N/A time=00:00:19.85 bitrate=N/A speed=1.02x    frame=  611 fps= 31 q=23.0 size=N/A time=00:00:20.38 bitrate=N/A speed=1.02x    frame=  626 fps= 31 q=23.0 size=N/A time=00:00:20.88 bitrate=N/A speed=1.02x    frame=  641 fps= 31 q=23.0 size=N/A time=00:00:21.38 bitrate=N/A speed=1.02x    frame=  656 fps= 31 q=23.0 size=N/A time=00:00:21.88 bitrate=N/A speed=1.02x    frame=  671 fps= 30 q=23.0 size=N/A time=00:00:22.38 bitrate=N/A speed=1.02x    frame=  686 fps= 30 q=24.0 size=N/A time=00:00:22.88 bitrate=N/A speed=1.02x    frame=  701 fps= 30 q=24.0 size=N/A time=00:00:23.39 bitrate=N/A speed=1.02x    frame=  716 fps= 30 q=23.0 size=N/A time=00:00:23.89 bitrate=N/A speed=1.02x    frame=  731 fps= 30 q=23.0 size=N/A time=00:00:24.39 bitrate=N/A speed=1.02x    frame=  746 fps= 30 q=23.0 size=N/A time=00:00:24.89 bitrate=N/A speed=1.02x    frame=  761 fps= 30 q=22.0 size=N/A time=00:00:25.39 bitrate=N/A speed=1.02x    frame=  776 fps= 30 q=22.0 size=N/A time=00:00:25.89 bitrate=N/A speed=1.02x    frame=  789 fps= 30 q=22.0 size=N/A time=00:00:26.32 bitrate=N/A speed=1.01x    frame=  806 fps= 30 q=24.0 size=N/A time=00:00:26.89 bitrate=N/A dup=1 drop=0 speed=1.01x    frame=  821 fps= 30 q=24.0 size=N/A time=00:00:27.39 bitrate=N/A dup=1 drop=0 speed=1.01x    frame=  836 fps= 30 q=25.0 size=N/A time=00:00:27.89 bitrate=N/A dup=1 drop=0 speed=1.01x    frame=  851 fps= 30 q=25.0 size=N/A time=00:00:28.39 bitrate=N/A dup=1 drop=0 speed=1.01x    frame=  866 fps= 30 q=24.0 size=N/A time=00:00:28.89 bitrate=N/A dup=1 drop=0 speed=1.01x    frame=  881 fps= 30 q=25.0 size=N/A time=00:00:29.39 bitrate=N/A dup=1 drop=0 speed=1.01x    frame=  895 fps= 30 q=24.0 size=N/A time=00:00:29.86 bitrate=N/A dup=1 drop=0 speed=1.01x    frame=  911 fps= 30 q=25.0 size=N/A time=00:00:30.39 bitrate=N/A dup=1 drop=0 speed=1.01x    frame=  926 fps= 30 q=25.0 size=N/A time=00:00:30.89 bitrate=N/A dup=1 drop=0 speed=1.01x    frame=  941 fps= 30 q=24.0 size=N/A time=00:00:31.39 bitrate=N/A dup=1 drop=0 speed=1.01x    frame=  956 fps= 30 q=25.0 size=N/A time=00:00:31.89 bitrate=N/A dup=1 drop=0 speed=1.01x    frame=  971 fps= 30 q=24.0 size=N/A time=00:00:32.39 bitrate=N/A dup=1 drop=0 speed=1.01x    frame=  986 fps= 30 q=24.0 size=N/A time=00:00:32.89 bitrate=N/A dup=1 drop=0 speed=1.01x    frame= 1001 fps= 30 q=21.0 size=N/A time=00:00:33.40 bitrate=N/A dup=1 drop=0 speed=1.01x    frame= 1015 fps= 30 q=24.0 size=N/A time=00:00:33.86 bitrate=N/A dup=1 drop=0 speed=1.01x    frame= 1030 fps= 30 q=24.0 size=N/A time=00:00:34.36 bitrate=N/A dup=1 drop=0 speed=1.01x    frame= 1045 fps= 30 q=25.0 size=N/A time=00:00:34.86 bitrate=N/A dup=1 drop=0 speed=1.01x    frame= 1060 fps= 30 q=24.0 size=N/A time=00:00:35.36 bitrate=N/A dup=1 drop=0 speed=1.01x    frame= 1075 fps= 30 q=24.0 size=N/A time=00:00:35.86 bitrate=N/A dup=1 drop=0 speed=1.01x    frame= 1090 fps= 30 q=23.0 size=N/A time=00:00:36.36 bitrate=N/A dup=1 drop=0 speed=1.01x    frame= 1106 fps= 30 q=23.0 size=N/A time=00:00:36.90 bitrate=N/A dup=1 drop=0 speed=1.01x    frame= 1120 fps= 30 q=24.0 size=N/A time=00:00:37.37 bitrate=N/A dup=1 drop=0 speed=1.01x    frame= 1136 fps= 30 q=24.0 size=N/A time=00:00:37.90 bitrate=N/A dup=1 drop=0 speed=1.01x    frame= 1151 fps= 30 q=24.0 size=N/A time=00:00:38.40 bitrate=N/A dup=1 drop=0 speed=1.01x    frame= 1165 fps= 30 q=24.0 size=N/A time=00:00:38.87 bitrate=N/A dup=1 drop=0 speed=1.01x    frame= 1181 fps= 30 q=24.0 size=N/A time=00:00:39.40 bitrate=N/A dup=1 drop=0 speed=1.01x    frame= 1196 fps= 30 q=24.0 size=N/A time=00:00:39.90 bitrate=N/A dup=1 drop=0 speed=1.01x    frame= 1210 fps= 30 q=24.0 size=N/A time=00:00:40.37 bitrate=N/A dup=1 drop=0 speed=1.01x    frame= 1226 fps= 30 q=23.0 size=N/A time=00:00:40.90 bitrate=N/A dup=1 drop=0 speed=1.01x    frame= 1241 fps= 30 q=24.0 size=N/A time=00:00:41.40 bitrate=N/A dup=1 drop=0 speed=1.01x    frame= 1256 fps= 30 q=24.0 size=N/A time=00:00:41.90 bitrate=N/A dup=1 drop=0 speed=1.01x    frame= 1271 fps= 30 q=24.0 size=N/A time=00:00:42.40 bitrate=N/A dup=1 drop=0 speed=1.01x    frame= 1286 fps= 30 q=23.0 size=N/A time=00:00:42.90 bitrate=N/A dup=1 drop=0 speed=1.01x    frame= 1301 fps= 30 q=23.0 size=N/A time=00:00:43.41 bitrate=N/A dup=1 drop=0 speed=1.01x    frame= 1316 fps= 30 q=23.0 size=N/A time=00:00:43.91 bitrate=N/A dup=1 drop=0 speed=1.01x    frame= 1331 fps= 30 q=23.0 size=N/A time=00:00:44.41 bitrate=N/A dup=1 drop=0 speed=1.01x    frame= 1345 fps= 30 q=23.0 size=N/A time=00:00:44.87 bitrate=N/A dup=1 drop=0 speed=1.01x    frame= 1361 fps= 30 q=23.0 size=N/A time=00:00:45.41 bitrate=N/A dup=1 drop=0 speed=1.01x    frame= 1376 fps= 30 q=23.0 size=N/A time=00:00:45.91 bitrate=N/A dup=1 drop=0 speed=1.01x    frame= 1391 fps= 30 q=23.0 size=N/A time=00:00:46.41 bitrate=N/A dup=1 drop=0 speed=1.01x    frame= 1406 fps= 30 q=24.0 size=N/A time=00:00:46.91 bitrate=N/A dup=1 drop=0 speed=1.01x    frame= 1421 fps= 30 q=23.0 size=N/A time=00:00:47.41 bitrate=N/A dup=1 drop=0 speed=1.01x    frame= 1435 fps= 30 q=23.0 size=N/A time=00:00:47.88 bitrate=N/A dup=1 drop=0 speed=1.01x    frame= 1451 fps= 30 q=23.0 size=N/A time=00:00:48.41 bitrate=N/A dup=1 drop=0 speed=1.01x    frame= 1465 fps= 30 q=23.0 size=N/A time=00:00:48.88 bitrate=N/A dup=1 drop=0 speed=1.01x    frame= 1480 fps= 30 q=24.0 size=N/A time=00:00:49.38 bitrate=N/A dup=1 drop=0 speed=1.01x    frame= 1495 fps= 30 q=23.0 size=N/A time=00:00:49.88 bitrate=N/A dup=1 drop=0 speed=1.01x    frame= 1511 fps= 30 q=23.0 size=N/A time=00:00:50.41 bitrate=N/A dup=1 drop=0 speed=1.01x    frame= 1526 fps= 30 q=23.0 size=N/A time=00:00:50.91 bitrate=N/A dup=1 drop=0 speed=1.01x    frame= 1541 fps= 30 q=23.0 size=N/A time=00:00:51.41 bitrate=N/A dup=1 drop=0 speed=1.01x    frame= 1556 fps= 30 q=22.0 size=N/A time=00:00:51.91 bitrate=N/A dup=1 drop=0 speed=1.01x    frame= 1571 fps= 30 q=22.0 size=N/A time=00:00:52.41 bitrate=N/A dup=1 drop=0 speed=1.01x    frame= 1585 fps= 30 q=22.0 size=N/A time=00:00:52.88 bitrate=N/A dup=1 drop=0 speed=1.01x    frame= 1601 fps= 30 q=24.0 size=N/A time=00:00:53.42 bitrate=N/A dup=2 drop=0 speed=1.01x    frame= 1616 fps= 30 q=24.0 size=N/A time=00:00:53.92 bitrate=N/A dup=2 drop=0 speed=1.01x    frame= 1631 fps= 30 q=25.0 size=N/A time=00:00:54.42 bitrate=N/A dup=2 drop=0 speed=1.01x    frame= 1646 fps= 30 q=25.0 size=N/A time=00:00:54.92 bitrate=N/A dup=2 drop=0 speed=1.01x    frame= 1661 fps= 30 q=25.0 size=N/A time=00:00:55.42 bitrate=N/A dup=2 drop=0 speed=1.01x    frame= 1676 fps= 30 q=25.0 size=N/A time=00:00:55.92 bitrate=N/A dup=2 drop=0 speed=1.01x    frame= 1691 fps= 30 q=24.0 size=N/A time=00:00:56.42 bitrate=N/A dup=2 drop=0 speed=1.01x    frame= 1706 fps= 30 q=24.0 size=N/A time=00:00:56.92 bitrate=N/A dup=2 drop=0 speed=1.01x    frame= 1721 fps= 30 q=25.0 size=N/A time=00:00:57.42 bitrate=N/A dup=2 drop=0 speed=1.01x    frame= 1736 fps= 30 q=24.0 size=N/A time=00:00:57.92 bitrate=N/A dup=2 drop=0 speed=1.01x    frame= 1751 fps= 30 q=22.0 size=N/A time=00:00:58.42 bitrate=N/A dup=2 drop=0 speed=1.01x    frame= 1766 fps= 30 q=24.0 size=N/A time=00:00:58.92 bitrate=N/A dup=2 drop=0 speed=1.01x    frame= 1781 fps= 30 q=24.0 size=N/A time=00:00:59.42 bitrate=N/A dup=2 drop=0 speed=1.01x    frame= 1797 fps= 30 q=24.0 size=N/A time=00:00:59.95 bitrate=N/A dup=2 drop=0 speed=1.01x    frame= 1812 fps= 30 q=24.0 size=N/A time=00:01:00.46 bitrate=N/A dup=2 drop=0 speed=1.01x    frame= 1827 fps= 30 q=24.0 size=N/A time=00:01:00.96 bitrate=N/A dup=2 drop=0 speed=1.01x    frame= 1842 fps= 30 q=24.0 size=N/A time=00:01:01.46 bitrate=N/A dup=2 drop=0 speed=1.01x    frame= 1857 fps= 30 q=24.0 size=N/A time=00:01:01.96 bitrate=N/A dup=2 drop=0 speed=1.01x    frame= 1872 fps= 30 q=24.0 size=N/A time=00:01:02.46 bitrate=N/A dup=2 drop=0 speed=1.01x    frame= 1887 fps= 30 q=24.0 size=N/A time=00:01:02.96 bitrate=N/A dup=2 drop=0 speed=1.01x    frame= 1902 fps= 30 q=23.0 size=N/A time=00:01:03.46 bitrate=N/A dup=2 drop=0 speed=1.01x    frame= 1917 fps= 30 q=25.0 size=N/A time=00:01:03.96 bitrate=N/A dup=2 drop=0 speed=1.01x    frame= 1931 fps= 30 q=24.0 size=N/A time=00:01:04.43 bitrate=N/A dup=2 drop=0 speed=1.01x    frame= 1947 fps= 30 q=24.0 size=N/A time=00:01:04.96 bitrate=N/A dup=2 drop=0 speed=1.01x    frame= 1962 fps= 30 q=24.0 size=N/A time=00:01:05.46 bitrate=N/A dup=2 drop=0 speed=1.01x    frame= 1977 fps= 30 q=24.0 size=N/A time=00:01:05.96 bitrate=N/A dup=2 drop=0 speed=1.01x    frame= 1992 fps= 30 q=24.0 size=N/A time=00:01:06.46 bitrate=N/A dup=2 drop=0 speed=1.01x    frame= 2007 fps= 30 q=24.0 size=N/A time=00:01:06.96 bitrate=N/A dup=2 drop=0 speed=1.01x    frame= 2022 fps= 30 q=23.0 size=N/A time=00:01:07.46 bitrate=N/A dup=2 drop=0 speed=1.01x    frame= 2037 fps= 30 q=24.0 size=N/A time=00:01:07.96 bitrate=N/A dup=2 drop=0 speed=1.01x    frame= 2052 fps= 30 q=24.0 size=N/A time=00:01:08.46 bitrate=N/A dup=2 drop=0 speed=1.01x    frame= 2067 fps= 30 q=24.0 size=N/A time=00:01:08.96 bitrate=N/A dup=2 drop=0 speed=1.01x    frame= 2082 fps= 30 q=23.0 size=N/A time=00:01:09.46 bitrate=N/A dup=2 drop=0 speed=1.01x    frame= 2097 fps= 30 q=23.0 size=N/A time=00:01:09.96 bitrate=N/A dup=2 drop=0 speed=1.01x    frame= 2111 fps= 30 q=23.0 size=N/A time=00:01:10.43 bitrate=N/A dup=2 drop=0 speed=1.01x    frame= 2127 fps= 30 q=23.0 size=N/A time=00:01:10.97 bitrate=N/A dup=2 drop=0 speed=1.01x    frame= 2141 fps= 30 q=23.0 size=N/A time=00:01:11.43 bitrate=N/A dup=2 drop=0 speed=   1x    frame= 2157 fps= 30 q=23.0 size=N/A time=00:01:11.97 bitrate=N/A dup=2 drop=0 speed=1.01x    frame= 2171 fps= 30 q=23.0 size=N/A time=00:01:12.43 bitrate=N/A dup=2 drop=0 speed=   1x    frame= 2187 fps= 30 q=23.0 size=N/A time=00:01:12.97 bitrate=N/A dup=2 drop=0 speed=1.01x    frame= 2201 fps= 30 q=23.0 size=N/A time=00:01:13.44 bitrate=N/A dup=2 drop=0 speed=   1x    frame= 2217 fps= 30 q=23.0 size=N/A time=00:01:13.97 bitrate=N/A dup=2 drop=0 speed=1.01x    frame= 2232 fps= 30 q=23.0 size=N/A time=00:01:14.47 bitrate=N/A dup=2 drop=0 speed=1.01x    frame= 2246 fps= 30 q=23.0 size=N/A time=00:01:14.94 bitrate=N/A dup=2 drop=0 speed=   1x    frame= 2261 fps= 30 q=23.0 size=N/A time=00:01:15.44 bitrate=N/A dup=2 drop=0 speed=   1x    frame= 2276 fps= 30 q=24.0 size=N/A time=00:01:15.94 bitrate=N/A dup=2 drop=0 speed=   1x    frame= 2291 fps= 30 q=23.0 size=N/A time=00:01:16.44 bitrate=N/A dup=2 drop=0 speed=   1x    frame= 2306 fps= 30 q=23.0 size=N/A time=00:01:16.94 bitrate=N/A dup=2 drop=0 speed=   1x    frame= 2321 fps= 30 q=23.0 size=N/A time=00:01:17.44 bitrate=N/A dup=2 drop=0 speed=   1x    frame= 2336 fps= 30 q=23.0 size=N/A time=00:01:17.94 bitrate=N/A dup=2 drop=0 speed=   1x    frame= 2351 fps= 30 q=23.0 size=N/A time=00:01:18.44 bitrate=N/A dup=2 drop=0 speed=   1x    frame= 2366 fps= 30 q=22.0 size=N/A time=00:01:18.94 bitrate=N/A dup=2 drop=0 speed=   1x    frame= 2381 fps= 30 q=22.0 size=N/A time=00:01:19.44 bitrate=N/A dup=2 drop=0 speed=   1x    frame= 2396 fps= 30 q=24.0 size=N/A time=00:01:19.94 bitrate=N/A dup=3 drop=0 speed=   1x    frame= 2411 fps= 30 q=24.0 size=N/A time=00:01:20.44 bitrate=N/A dup=3 drop=0 speed=   1x    frame= 2426 fps= 30 q=25.0 size=N/A time=00:01:20.94 bitrate=N/A dup=3 drop=0 speed=   1x    frame= 2441 fps= 30 q=25.0 size=N/A time=00:01:21.44 bitrate=N/A dup=3 drop=0 speed=   1x    frame= 2456 fps= 30 q=26.0 size=N/A time=00:01:21.94 bitrate=N/A dup=3 drop=0 speed=   1x    frame= 2471 fps= 30 q=25.0 size=N/A time=00:01:22.44 bitrate=N/A dup=3 drop=0 speed=   1x    frame= 2486 fps= 30 q=25.0 size=N/A time=00:01:22.94 bitrate=N/A dup=3 drop=0 speed=   1x    frame= 2501 fps= 30 q=22.0 size=N/A time=00:01:23.45 bitrate=N/A dup=3 drop=0 speed=   1x    frame= 2516 fps= 30 q=25.0 size=N/A time=00:01:23.95 bitrate=N/A dup=3 drop=0 speed=   1x    frame= 2531 fps= 30 q=24.0 size=N/A time=00:01:24.45 bitrate=N/A dup=3 drop=0 speed=   1x    frame= 2546 fps= 30 q=25.0 size=N/A time=00:01:24.95 bitrate=N/A dup=3 drop=0 speed=   1x    frame= 2561 fps= 30 q=24.0 size=N/A time=00:01:25.45 bitrate=N/A dup=3 drop=0 speed=   1x    frame= 2576 fps= 30 q=24.0 size=N/A time=00:01:25.95 bitrate=N/A dup=3 drop=0 speed=   1x    frame= 2591 fps= 30 q=24.0 size=N/A time=00:01:26.45 bitrate=N/A dup=3 drop=0 speed=   1x    frame= 2606 fps= 30 q=24.0 size=N/A time=00:01:26.95 bitrate=N/A dup=3 drop=0 speed=   1x    frame= 2621 fps= 30 q=23.0 size=N/A time=00:01:27.45 bitrate=N/A dup=3 drop=0 speed=   1x    frame= 2636 fps= 30 q=25.0 size=N/A time=00:01:27.95 bitrate=N/A dup=3 drop=0 speed=   1x    frame= 2651 fps= 30 q=24.0 size=N/A time=00:01:28.45 bitrate=N/A dup=3 drop=0 speed=   1x    frame= 2666 fps= 30 q=25.0 size=N/A time=00:01:28.95 bitrate=N/A dup=3 drop=0 speed=   1x    frame= 2681 fps= 30 q=23.0 size=N/A time=00:01:29.45 bitrate=N/A dup=3 drop=0 speed=   1x    frame= 2696 fps= 30 q=23.0 size=N/A time=00:01:29.95 bitrate=N/A dup=3 drop=0 speed=   1x    frame= 2711 fps= 30 q=24.0 size=N/A time=00:01:30.45 bitrate=N/A dup=3 drop=0 speed=   1x    frame= 2726 fps= 30 q=24.0 size=N/A time=00:01:30.95 bitrate=N/A dup=3 drop=0 speed=   1x    frame= 2741 fps= 30 q=23.0 size=N/A time=00:01:31.45 bitrate=N/A dup=3 drop=0 speed=   1x    frame= 2756 fps= 30 q=24.0 size=N/A time=00:01:31.95 bitrate=N/A dup=3 drop=0 speed=   1x    frame= 2771 fps= 30 q=24.0 size=N/A time=00:01:32.45 bitrate=N/A dup=3 drop=0 speed=   1x    frame= 2786 fps= 30 q=24.0 size=N/A time=00:01:32.95 bitrate=N/A dup=3 drop=0 speed=   1x    frame= 2801 fps= 30 q=23.0 size=N/A time=00:01:33.46 bitrate=N/A dup=3 drop=0 speed=   1x    frame= 2816 fps= 30 q=23.0 size=N/A time=00:01:33.96 bitrate=N/A dup=3 drop=0 speed=   1x    frame= 2831 fps= 30 q=24.0 size=N/A time=00:01:34.46 bitrate=N/A dup=3 drop=0 speed=   1x    frame= 2846 fps= 30 q=24.0 size=N/A time=00:01:34.96 bitrate=N/A dup=3 drop=0 speed=   1x    frame= 2861 fps= 30 q=24.0 size=N/A time=00:01:35.46 bitrate=N/A dup=3 drop=0 speed=   1x    frame= 2876 fps= 30 q=23.0 size=N/A time=00:01:35.96 bitrate=N/A dup=3 drop=0 speed=   1x    frame= 2891 fps= 30 q=23.0 size=N/A time=00:01:36.46 bitrate=N/A dup=3 drop=0 speed=   1x    frame= 2906 fps= 30 q=23.0 size=N/A time=00:01:36.96 bitrate=N/A dup=3 drop=0 speed=   1x    frame= 2921 fps= 30 q=23.0 size=N/A time=00:01:37.46 bitrate=N/A dup=3 drop=0 speed=   1x    frame= 2936 fps= 30 q=23.0 size=N/A time=00:01:37.96 bitrate=N/A dup=3 drop=0 speed=   1x    frame= 2951 fps= 30 q=23.0 size=N/A time=00:01:38.46 bitrate=N/A dup=3 drop=0 speed=   1x    frame= 2966 fps= 30 q=23.0 size=N/A time=00:01:38.96 bitrate=N/A dup=3 drop=0 speed=   1x    frame= 2981 fps= 30 q=23.0 size=N/A time=00:01:39.46 bitrate=N/A dup=3 drop=0 speed=   1x    frame= 2996 fps= 30 q=23.0 size=N/A time=00:01:39.96 bitrate=N/A dup=3 drop=0 speed=   1x    frame= 3011 fps= 30 q=23.0 size=N/A time=00:01:40.46 bitrate=N/A dup=3 drop=0 speed=   1x    frame= 3026 fps= 30 q=23.0 size=N/A time=00:01:40.96 bitrate=N/A dup=3 drop=0 speed=   1x    frame= 3041 fps= 30 q=23.0 size=N/A time=00:01:41.46 bitrate=N/A dup=3 drop=0 speed=   1x    frame= 3056 fps= 30 q=23.0 size=N/A time=00:01:41.96 bitrate=N/A dup=3 drop=0 speed=   1x    frame= 3071 fps= 30 q=24.0 size=N/A time=00:01:42.46 bitrate=N/A dup=3 drop=0 speed=   1x    frame= 3086 fps= 30 q=23.0 size=N/A time=00:01:42.96 bitrate=N/A dup=3 drop=0 speed=   1x    frame= 3101 fps= 30 q=23.0 size=N/A time=00:01:43.47 bitrate=N/A dup=3 drop=0 speed=   1x    frame= 3116 fps= 30 q=23.0 size=N/A time=00:01:43.97 bitrate=N/A dup=3 drop=0 speed=   1x    frame= 3131 fps= 30 q=23.0 size=N/A time=00:01:44.47 bitrate=N/A dup=3 drop=0 speed=   1x    frame= 3146 fps= 30 q=23.0 size=N/A time=00:01:44.97 bitrate=N/A dup=3 drop=0 speed=   1x    frame= 3161 fps= 30 q=22.0 size=N/A time=00:01:45.47 bitrate=N/A dup=3 drop=0 speed=   1x    frame= 3176 fps= 30 q=22.0 size=N/A time=00:01:45.97 bitrate=N/A dup=3 drop=0 speed=   1x    frame= 3191 fps= 30 q=24.0 size=N/A time=00:01:46.47 bitrate=N/A dup=4 drop=0 speed=   1x    frame= 3206 fps= 30 q=24.0 size=N/A time=00:01:46.97 bitrate=N/A dup=4 drop=0 speed=   1x    frame= 3221 fps= 30 q=25.0 size=N/A time=00:01:47.47 bitrate=N/A dup=4 drop=0 speed=   1x    frame= 3236 fps= 30 q=25.0 size=N/A time=00:01:47.97 bitrate=N/A dup=4 drop=0 speed=   1x    frame= 3251 fps= 30 q=22.0 size=N/A time=00:01:48.47 bitrate=N/A dup=4 drop=0 speed=   1x    frame= 3265 fps= 30 q=25.0 size=N/A time=00:01:48.94 bitrate=N/A dup=4 drop=0 speed=   1x    frame= 3280 fps= 30 q=24.0 size=N/A time=00:01:49.44 bitrate=N/A dup=4 drop=0 speed=   1x    frame= 3296 fps= 30 q=24.0 size=N/A time=00:01:49.97 bitrate=N/A dup=4 drop=0 speed=   1x    frame= 3310 fps= 30 q=25.0 size=N/A time=00:01:50.44 bitrate=N/A dup=4 drop=0 speed=   1x    frame= 3325 fps= 30 q=24.0 size=N/A time=00:01:50.94 bitrate=N/A dup=4 drop=0 speed=   1x    frame= 3341 fps= 30 q=25.0 size=N/A time=00:01:51.47 bitrate=N/A dup=4 drop=0 speed=   1x    frame= 3356 fps= 30 q=24.0 size=N/A time=00:01:51.97 bitrate=N/A dup=4 drop=0 speed=   1x    frame= 3371 fps= 30 q=24.0 size=N/A time=00:01:52.47 bitrate=N/A dup=4 drop=0 speed=   1x    frame= 3386 fps= 30 q=24.0 size=N/A time=00:01:52.97 bitrate=N/A dup=4 drop=0 speed=   1x    frame= 3401 fps= 30 q=24.0 size=N/A time=00:01:53.48 bitrate=N/A dup=4 drop=0 speed=   1x    frame= 3416 fps= 30 q=24.0 size=N/A time=00:01:53.98 bitrate=N/A dup=4 drop=0 speed=   1x    frame= 3431 fps= 30 q=24.0 size=N/A time=00:01:54.48 bitrate=N/A dup=4 drop=0 speed=   1x    frame= 3445 fps= 30 q=25.0 size=N/A time=00:01:54.94 bitrate=N/A dup=4 drop=0 speed=   1x    frame= 3460 fps= 30 q=24.0 size=N/A time=00:01:55.44 bitrate=N/A dup=4 drop=0 speed=   1x    frame= 3475 fps= 30 q=24.0 size=N/A time=00:01:55.94 bitrate=N/A dup=4 drop=0 speed=   1x    frame= 3490 fps= 30 q=23.0 size=N/A time=00:01:56.44 bitrate=N/A dup=4 drop=0 speed=   1x    frame= 3505 fps= 30 q=25.0 size=N/A time=00:01:56.95 bitrate=N/A dup=4 drop=0 speed=   1x    frame= 3520 fps= 30 q=24.0 size=N/A time=00:01:57.45 bitrate=N/A dup=4 drop=0 speed=   1x    frame= 3535 fps= 30 q=23.0 size=N/A time=00:01:57.95 bitrate=N/A dup=4 drop=0 speed=   1x    frame= 3550 fps= 30 q=24.0 size=N/A time=00:01:58.45 bitrate=N/A dup=4 drop=0 speed=   1x    frame= 3565 fps= 30 q=24.0 size=N/A time=00:01:58.95 bitrate=N/A dup=4 drop=0 speed=   1x    frame= 3580 fps= 30 q=25.0 size=N/A time=00:01:59.45 bitrate=N/A dup=4 drop=0 speed=   1x    frame= 3595 fps= 30 q=24.0 size=N/A time=00:01:59.95 bitrate=N/A dup=4 drop=0 speed=   1x    frame= 3610 fps= 30 q=24.0 size=N/A time=00:02:00.45 bitrate=N/A dup=4 drop=0 speed=   1x    frame= 3625 fps= 30 q=24.0 size=N/A time=00:02:00.95 bitrate=N/A dup=4 drop=0 speed=   1x    frame= 3640 fps= 30 q=24.0 size=N/A time=00:02:01.45 bitrate=N/A dup=4 drop=0 speed=   1x    frame= 3655 fps= 30 q=23.0 size=N/A time=00:02:01.95 bitrate=N/A dup=4 drop=0 speed=   1x    frame= 3670 fps= 30 q=23.0 size=N/A time=00:02:02.45 bitrate=N/A dup=4 drop=0 speed=   1x    frame= 3685 fps= 30 q=23.0 size=N/A time=00:02:02.95 bitrate=N/A dup=4 drop=0 speed=   1x    frame= 3700 fps= 30 q=23.0 size=N/A time=00:02:03.45 bitrate=N/A dup=4 drop=0 speed=   1x    frame= 3715 fps= 30 q=23.0 size=N/A time=00:02:03.95 bitrate=N/A dup=4 drop=0 speed=   1x    frame= 3730 fps= 30 q=23.0 size=N/A time=00:02:04.45 bitrate=N/A dup=4 drop=0 speed=   1x    frame= 3745 fps= 30 q=23.0 size=N/A time=00:02:04.95 bitrate=N/A dup=4 drop=0 speed=   1x    frame= 3760 fps= 30 q=23.0 size=N/A time=00:02:05.45 bitrate=N/A dup=4 drop=0 speed=   1x    frame= 3775 fps= 30 q=23.0 size=N/A time=00:02:05.95 bitrate=N/A dup=4 drop=0 speed=   1x    frame= 3790 fps= 30 q=23.0 size=N/A time=00:02:06.45 bitrate=N/A dup=4 drop=0 speed=   1x    frame= 3805 fps= 30 q=23.0 size=N/A time=00:02:06.96 bitrate=N/A dup=4 drop=0 speed=   1x    frame= 3820 fps= 30 q=24.0 size=N/A time=00:02:07.46 bitrate=N/A dup=4 drop=0 speed=   1x    frame= 3835 fps= 30 q=23.0 size=N/A time=00:02:07.96 bitrate=N/A dup=4 drop=0 speed=   1x    frame= 3850 fps= 30 q=24.0 size=N/A time=00:02:08.46 bitrate=N/A dup=4 drop=0 speed=   1x    frame= 3865 fps= 30 q=24.0 size=N/A time=00:02:08.96 bitrate=N/A dup=4 drop=0 speed=   1x    frame= 3880 fps= 30 q=23.0 size=N/A time=00:02:09.46 bitrate=N/A dup=4 drop=0 speed=   1x    frame= 3895 fps= 30 q=23.0 size=N/A time=00:02:09.96 bitrate=N/A dup=4 drop=0 speed=   1x    frame= 3910 fps= 30 q=23.0 size=N/A time=00:02:10.46 bitrate=N/A dup=4 drop=0 speed=   1x    frame= 3925 fps= 30 q=23.0 size=N/A time=00:02:10.96 bitrate=N/A dup=4 drop=0 speed=   1x    frame= 3940 fps= 30 q=23.0 size=N/A time=00:02:11.46 bitrate=N/A dup=4 drop=0 speed=   1x    frame= 3955 fps= 30 q=22.0 size=N/A time=00:02:11.96 bitrate=N/A dup=4 drop=0 speed=   1x    frame= 3970 fps= 30 q=22.0 size=N/A time=00:02:12.46 bitrate=N/A dup=4 drop=0 speed=   1x    frame= 3986 fps= 30 q=24.0 size=N/A time=00:02:12.99 bitrate=N/A dup=6 drop=0 speed=   1x    frame= 4001 fps= 30 q=20.0 size=N/A time=00:02:13.50 bitrate=N/A dup=6 drop=0 speed=   1x    frame= 4016 fps= 30 q=24.0 size=N/A time=00:02:14.00 bitrate=N/A dup=6 drop=0 speed=   1x    frame= 4031 fps= 30 q=25.0 size=N/A time=00:02:14.50 bitrate=N/A dup=6 drop=0 speed=   1x    frame= 4046 fps= 30 q=25.0 size=N/A time=00:02:15.00 bitrate=N/A dup=6 drop=0 speed=   1x    frame= 4061 fps= 30 q=26.0 size=N/A time=00:02:15.50 bitrate=N/A dup=6 drop=0 speed=   1x    frame= 4076 fps= 30 q=25.0 size=N/A time=00:02:16.00 bitrate=N/A dup=6 drop=0 speed=   1x    frame= 4091 fps= 30 q=25.0 size=N/A time=00:02:16.50 bitrate=N/A dup=6 drop=0 speed=   1x    frame= 4106 fps= 30 q=24.0 size=N/A time=00:02:17.00 bitrate=N/A dup=6 drop=0 speed=   1x    frame= 4121 fps= 30 q=24.0 size=N/A time=00:02:17.50 bitrate=N/A dup=6 drop=0 speed=   1x    frame= 4136 fps= 30 q=25.0 size=N/A time=00:02:18.00 bitrate=N/A dup=6 drop=0 speed=   1x    frame= 4151 fps= 30 q=24.0 size=N/A time=00:02:18.50 bitrate=N/A dup=6 drop=0 speed=   1x    frame= 4166 fps= 30 q=24.0 size=N/A time=00:02:19.00 bitrate=N/A dup=6 drop=0 speed=   1x    frame= 4181 fps= 30 q=24.0 size=N/A time=00:02:19.50 bitrate=N/A dup=6 drop=0 speed=   1x    frame= 4196 fps= 30 q=24.0 size=N/A time=00:02:20.00 bitrate=N/A dup=6 drop=0 speed=   1x    frame= 4211 fps= 30 q=23.0 size=N/A time=00:02:20.50 bitrate=N/A dup=6 drop=0 speed=   1x    frame= 4226 fps= 30 q=24.0 size=N/A time=00:02:21.00 bitrate=N/A dup=6 drop=0 speed=   1x    frame= 4241 fps= 30 q=24.0 size=N/A time=00:02:21.50 bitrate=N/A dup=6 drop=0 speed=   1x    frame= 4256 fps= 30 q=24.0 size=N/A time=00:02:22.00 bitrate=N/A dup=6 drop=0 speed=   1x    frame= 4271 fps= 30 q=23.0 size=N/A time=00:02:22.50 bitrate=N/A dup=6 drop=0 speed=   1x    frame= 4286 fps= 30 q=23.0 size=N/A time=00:02:23.00 bitrate=N/A dup=6 drop=0 speed=   1x    frame= 4301 fps= 30 q=25.0 size=N/A time=00:02:23.51 bitrate=N/A dup=6 drop=0 speed=   1x    frame= 4316 fps= 30 q=23.0 size=N/A time=00:02:24.01 bitrate=N/A dup=6 drop=0 speed=   1x    frame= 4331 fps= 30 q=24.0 size=N/A time=00:02:24.51 bitrate=N/A dup=6 drop=0 speed=   1x    frame= 4346 fps= 30 q=23.0 size=N/A time=00:02:25.01 bitrate=N/A dup=6 drop=0 speed=   1x    frame= 4361 fps= 30 q=24.0 size=N/A time=00:02:25.51 bitrate=N/A dup=6 drop=0 speed=   1x    frame= 4376 fps= 30 q=25.0 size=N/A time=00:02:26.01 bitrate=N/A dup=6 drop=0 speed=   1x    frame= 4391 fps= 30 q=24.0 size=N/A time=00:02:26.51 bitrate=N/A dup=6 drop=0 speed=   1x    frame= 4406 fps= 30 q=23.0 size=N/A time=00:02:27.01 bitrate=N/A dup=6 drop=0 speed=   1x    frame= 4421 fps= 30 q=24.0 size=N/A time=00:02:27.51 bitrate=N/A dup=6 drop=0 speed=   1x    frame= 4436 fps= 30 q=24.0 size=N/A time=00:02:28.01 bitrate=N/A dup=6 drop=0 speed=   1x    frame= 4451 fps= 30 q=23.0 size=N/A time=00:02:28.51 bitrate=N/A dup=6 drop=0 speed=   1x    frame= 4466 fps= 30 q=23.0 size=N/A time=00:02:29.01 bitrate=N/A dup=6 drop=0 speed=   1x    frame= 4481 fps= 30 q=23.0 size=N/A time=00:02:29.51 bitrate=N/A dup=6 drop=0 speed=   1x    frame= 4496 fps= 30 q=23.0 size=N/A time=00:02:30.01 bitrate=N/A dup=6 drop=0 speed=   1x    frame= 4511 fps= 30 q=23.0 size=N/A time=00:02:30.51 bitrate=N/A dup=6 drop=0 speed=   1x    frame= 4526 fps= 30 q=23.0 size=N/A time=00:02:31.01 bitrate=N/A dup=6 drop=0 speed=   1x    frame= 4541 fps= 30 q=23.0 size=N/A time=00:02:31.51 bitrate=N/A dup=6 drop=0 speed=   1x    frame= 4556 fps= 30 q=23.0 size=N/A time=00:02:32.01 bitrate=N/A dup=6 drop=0 speed=   1x    frame= 4571 fps= 30 q=23.0 size=N/A time=00:02:32.51 bitrate=N/A dup=6 drop=0 speed=   1x    frame= 4586 fps= 30 q=23.0 size=N/A time=00:02:33.01 bitrate=N/A dup=6 drop=0 speed=   1x    frame= 4601 fps= 30 q=23.0 size=N/A time=00:02:33.52 bitrate=N/A dup=6 drop=0 speed=   1x    frame= 4616 fps= 30 q=24.0 size=N/A time=00:02:34.02 bitrate=N/A dup=6 drop=0 speed=   1x    frame= 4631 fps= 30 q=23.0 size=N/A time=00:02:34.52 bitrate=N/A dup=6 drop=0 speed=   1x    frame= 4646 fps= 30 q=24.0 size=N/A time=00:02:35.02 bitrate=N/A dup=6 drop=0 speed=   1x    frame= 4661 fps= 30 q=24.0 size=N/A time=00:02:35.52 bitrate=N/A dup=6 drop=0 speed=   1x    frame= 4676 fps= 30 q=23.0 size=N/A time=00:02:36.02 bitrate=N/A dup=6 drop=0 speed=   1x    frame= 4691 fps= 30 q=23.0 size=N/A time=00:02:36.52 bitrate=N/A dup=6 drop=0 speed=   1x    frame= 4706 fps= 30 q=23.0 size=N/A time=00:02:37.02 bitrate=N/A dup=6 drop=0 speed=   1x    frame= 4721 fps= 30 q=23.0 size=N/A time=00:02:37.52 bitrate=N/A dup=6 drop=0 speed=   1x    frame= 4736 fps= 30 q=23.0 size=N/A time=00:02:38.02 bitrate=N/A dup=6 drop=0 speed=   1x    frame= 4751 fps= 30 q=20.0 size=N/A time=00:02:38.52 bitrate=N/A dup=6 drop=0 speed=   1x    frame= 4766 fps= 30 q=22.0 size=N/A time=00:02:39.02 bitrate=N/A dup=6 drop=0 speed=   1x    frame= 4780 fps= 30 q=23.0 size=N/A time=00:02:39.49 bitrate=N/A dup=7 drop=0 speed=   1x    frame= 4795 fps= 30 q=24.0 size=N/A time=00:02:39.99 bitrate=N/A dup=7 drop=0 speed=   1x    frame= 4810 fps= 30 q=25.0 size=N/A time=00:02:40.49 bitrate=N/A dup=7 drop=0 speed=   1x    frame= 4825 fps= 30 q=25.0 size=N/A time=00:02:40.99 bitrate=N/A dup=7 drop=0 speed=   1x    frame= 4840 fps= 30 q=25.0 size=N/A time=00:02:41.49 bitrate=N/A dup=7 drop=0 speed=   1x    frame= 4855 fps= 30 q=24.0 size=N/A time=00:02:41.99 bitrate=N/A dup=7 drop=0 speed=   1x    frame= 4870 fps= 30 q=25.0 size=N/A time=00:02:42.49 bitrate=N/A dup=7 drop=0 speed=   1x    frame= 4885 fps= 30 q=24.0 size=N/A time=00:02:42.99 bitrate=N/A dup=7 drop=0 speed=   1x    frame= 4900 fps= 30 q=24.0 size=N/A time=00:02:43.49 bitrate=N/A dup=7 drop=0 speed=   1x    frame= 4915 fps= 30 q=24.0 size=N/A time=00:02:43.99 bitrate=N/A dup=7 drop=0 speed=   1x    frame= 4930 fps= 30 q=24.0 size=N/A time=00:02:44.49 bitrate=N/A dup=7 drop=0 speed=   1x    frame= 4945 fps= 30 q=24.0 size=N/A time=00:02:44.99 bitrate=N/A dup=7 drop=0 speed=   1x    frame= 4960 fps= 30 q=24.0 size=N/A time=00:02:45.49 bitrate=N/A dup=7 drop=0 speed=   1x    frame= 4975 fps= 30 q=24.0 size=N/A time=00:02:45.99 bitrate=N/A dup=7 drop=0 speed=   1x    frame= 4990 fps= 30 q=24.0 size=N/A time=00:02:46.49 bitrate=N/A dup=7 drop=0 speed=   1x    frame= 5005 fps= 30 q=24.0 size=N/A time=00:02:47.00 bitrate=N/A dup=7 drop=0 speed=   1x    frame= 5020 fps= 30 q=25.0 size=N/A time=00:02:47.50 bitrate=N/A dup=7 drop=0 speed=   1x    frame= 5035 fps= 30 q=23.0 size=N/A time=00:02:48.00 bitrate=N/A dup=7 drop=0 speed=   1x    frame= 5050 fps= 30 q=25.0 size=N/A time=00:02:48.50 bitrate=N/A dup=7 drop=0 speed=   1x    frame= 5065 fps= 30 q=24.0 size=N/A time=00:02:49.00 bitrate=N/A dup=7 drop=0 speed=   1x    frame= 5080 fps= 30 q=24.0 size=N/A time=00:02:49.50 bitrate=N/A dup=7 drop=0 speed=   1x    frame= 5095 fps= 30 q=24.0 size=N/A time=00:02:50.00 bitrate=N/A dup=7 drop=0 speed=   1x    frame= 5110 fps= 30 q=24.0 size=N/A time=00:02:50.50 bitrate=N/A dup=7 drop=0 speed=   1x    frame= 5125 fps= 30 q=23.0 size=N/A time=00:02:51.00 bitrate=N/A dup=7 drop=0 speed=   1x    frame= 5140 fps= 30 q=24.0 size=N/A time=00:02:51.50 bitrate=N/A dup=7 drop=0 speed=   1x    frame= 5155 fps= 30 q=24.0 size=N/A time=00:02:52.00 bitrate=N/A dup=7 drop=0 speed=   1x    frame= 5170 fps= 30 q=25.0 size=N/A time=00:02:52.50 bitrate=N/A dup=7 drop=0 speed=   1x    frame= 5185 fps= 30 q=25.0 size=N/A time=00:02:53.00 bitrate=N/A dup=7 drop=0 speed=   1x    frame= 5200 fps= 30 q=24.0 size=N/A time=00:02:53.50 bitrate=N/A dup=7 drop=0 speed=   1x    frame= 5215 fps= 30 q=23.0 size=N/A time=00:02:54.00 bitrate=N/A dup=7 drop=0 speed=   1x    frame= 5230 fps= 30 q=24.0 size=N/A time=00:02:54.50 bitrate=N/A dup=7 drop=0 speed=   1x    frame= 5245 fps= 30 q=23.0 size=N/A time=00:02:55.00 bitrate=N/A dup=7 drop=0 speed=   1x    frame= 5260 fps= 30 q=23.0 size=N/A time=00:02:55.50 bitrate=N/A dup=7 drop=0 speed=   1x    frame= 5275 fps= 30 q=23.0 size=N/A time=00:02:56.00 bitrate=N/A dup=7 drop=0 speed=   1x    frame= 5290 fps= 30 q=23.0 size=N/A time=00:02:56.50 bitrate=N/A dup=7 drop=0 speed=   1x    frame= 5305 fps= 30 q=23.0 size=N/A time=00:02:57.01 bitrate=N/A dup=7 drop=0 speed=   1x    frame= 5320 fps= 30 q=23.0 size=N/A time=00:02:57.51 bitrate=N/A dup=7 drop=0 speed=   1x    frame= 5335 fps= 30 q=23.0 size=N/A time=00:02:58.01 bitrate=N/A dup=7 drop=0 speed=   1x    frame= 5350 fps= 30 q=23.0 size=N/A time=00:02:58.51 bitrate=N/A dup=7 drop=0 speed=   1x    frame= 5365 fps= 30 q=23.0 size=N/A time=00:02:59.01 bitrate=N/A dup=7 drop=0 speed=   1x    frame= 5380 fps= 30 q=23.0 size=N/A time=00:02:59.51 bitrate=N/A dup=7 drop=0 speed=   1x    frame= 5395 fps= 30 q=23.0 size=N/A time=00:03:00.01 bitrate=N/A dup=7 drop=0 speed=   1x    frame= 5410 fps= 30 q=24.0 size=N/A time=00:03:00.51 bitrate=N/A dup=7 drop=0 speed=   1x    frame= 5425 fps= 30 q=23.0 size=N/A time=00:03:01.01 bitrate=N/A dup=7 drop=0 speed=   1x    frame= 5440 fps= 30 q=24.0 size=N/A time=00:03:01.51 bitrate=N/A dup=7 drop=0 speed=   1x    frame= 5455 fps= 30 q=24.0 size=N/A time=00:03:02.01 bitrate=N/A dup=7 drop=0 speed=   1x    frame= 5470 fps= 30 q=23.0 size=N/A time=00:03:02.51 bitrate=N/A dup=7 drop=0 speed=   1x    frame= 5485 fps= 30 q=23.0 size=N/A time=00:03:03.01 bitrate=N/A dup=7 drop=0 speed=   1x    frame= 5500 fps= 30 q=23.0 size=N/A time=00:03:03.51 bitrate=N/A dup=7 drop=0 speed=   1x    frame= 5515 fps= 30 q=23.0 size=N/A time=00:03:04.01 bitrate=N/A dup=7 drop=0 speed=   1x    frame= 5530 fps= 30 q=23.0 size=N/A time=00:03:04.51 bitrate=N/A dup=7 drop=0 speed=   1x    frame= 5545 fps= 30 q=22.0 size=N/A time=00:03:05.01 bitrate=N/A dup=7 drop=0 speed=   1x    frame= 5560 fps= 30 q=22.0 size=N/A time=00:03:05.51 bitrate=N/A dup=7 drop=0 speed=   1x    frame= 5575 fps= 30 q=23.0 size=N/A time=00:03:06.01 bitrate=N/A dup=8 drop=0 speed=   1x    frame= 5590 fps= 30 q=24.0 size=N/A time=00:03:06.51 bitrate=N/A dup=8 drop=0 speed=   1x    frame= 5605 fps= 30 q=25.0 size=N/A time=00:03:07.02 bitrate=N/A dup=8 drop=0 speed=   1x    frame= 5620 fps= 30 q=25.0 size=N/A time=00:03:07.52 bitrate=N/A dup=8 drop=0 speed=   1x    frame= 5635 fps= 30 q=25.0 size=N/A time=00:03:08.02 bitrate=N/A dup=8 drop=0 speed=   1x    frame= 5650 fps= 30 q=24.0 size=N/A time=00:03:08.52 bitrate=N/A dup=8 drop=0 speed=   1x    frame= 5665 fps= 30 q=25.0 size=N/A time=00:03:09.02 bitrate=N/A dup=8 drop=0 speed=   1x    frame= 5680 fps= 30 q=24.0 size=N/A time=00:03:09.52 bitrate=N/A dup=8 drop=0 speed=   1x    frame= 5695 fps= 30 q=24.0 size=N/A time=00:03:10.02 bitrate=N/A dup=8 drop=0 speed=   1x    frame= 5710 fps= 30 q=24.0 size=N/A time=00:03:10.52 bitrate=N/A dup=8 drop=0 speed=   1x    frame= 5725 fps= 30 q=24.0 size=N/A time=00:03:11.02 bitrate=N/A dup=8 drop=0 speed=   1x    frame= 5740 fps= 30 q=24.0 size=N/A time=00:03:11.52 bitrate=N/A dup=8 drop=0 speed=   1x    frame= 5755 fps= 30 q=24.0 size=N/A time=00:03:12.02 bitrate=N/A dup=8 drop=0 speed=   1x    frame= 5769 fps= 30 q=25.0 size=N/A time=00:03:12.49 bitrate=N/A dup=8 drop=0 speed=   1x    frame= 5784 fps= 30 q=24.0 size=N/A time=00:03:12.99 bitrate=N/A dup=8 drop=0 speed=   1x    frame= 5799 fps= 30 q=24.0 size=N/A time=00:03:13.49 bitrate=N/A dup=8 drop=0 speed=   1x    frame= 5814 fps= 30 q=24.0 size=N/A time=00:03:13.99 bitrate=N/A dup=8 drop=0 speed=   1x    frame= 5829 fps= 30 q=24.0 size=N/A time=00:03:14.49 bitrate=N/A dup=8 drop=0 speed=   1x    frame= 5844 fps= 30 q=24.0 size=N/A time=00:03:14.99 bitrate=N/A dup=8 drop=0 speed=   1x    frame= 5859 fps= 30 q=24.0 size=N/A time=00:03:15.49 bitrate=N/A dup=8 drop=0 speed=   1x    frame= 5874 fps= 30 q=24.0 size=N/A time=00:03:15.99 bitrate=N/A dup=8 drop=0 speed=   1x    frame= 5889 fps= 30 q=24.0 size=N/A time=00:03:16.49 bitrate=N/A dup=8 drop=0 speed=   1x    frame= 5904 fps= 30 q=24.0 size=N/A time=00:03:16.99 bitrate=N/A dup=8 drop=0 speed=   1x    frame= 5919 fps= 30 q=24.0 size=N/A time=00:03:17.49 bitrate=N/A dup=8 drop=0 speed=   1x    frame= 5934 fps= 30 q=23.0 size=N/A time=00:03:17.99 bitrate=N/A dup=8 drop=0 speed=   1x    frame= 5949 fps= 30 q=24.0 size=N/A time=00:03:18.49 bitrate=N/A dup=8 drop=0 speed=   1x    frame= 5964 fps= 30 q=24.0 size=N/A time=00:03:19.03 bitrate=N/A dup=8 drop=0 speed=   1x    frame= 5979 fps= 30 q=24.0 size=N/A time=00:03:19.49 bitrate=N/A dup=8 drop=0 speed=   1x    frame= 5995 fps= 30 q=23.0 size=N/A time=00:03:20.03 bitrate=N/A dup=8 drop=0 speed=   1x    frame= 6010 fps= 30 q=23.0 size=N/A time=00:03:20.53 bitrate=N/A dup=8 drop=0 speed=   1x    frame= 6025 fps= 30 q=24.0 size=N/A time=00:03:21.03 bitrate=N/A dup=8 drop=0 speed=   1x    frame= 6040 fps= 30 q=23.0 size=N/A time=00:03:21.53 bitrate=N/A dup=8 drop=0 speed=   1x    frame= 6055 fps= 30 q=24.0 size=N/A time=00:03:22.03 bitrate=N/A dup=8 drop=0 speed=   1x    frame= 6070 fps= 30 q=23.0 size=N/A time=00:03:22.53 bitrate=N/A dup=8 drop=0 speed=   1x    frame= 6085 fps= 30 q=23.0 size=N/A time=00:03:23.03 bitrate=N/A dup=8 drop=0 speed=   1x    frame= 6100 fps= 30 q=23.0 size=N/A time=00:03:23.53 bitrate=N/A dup=8 drop=0 speed=   1x    frame= 6115 fps= 30 q=23.0 size=N/A time=00:03:24.03 bitrate=N/A dup=8 drop=0 speed=   1x    frame= 6130 fps= 30 q=23.0 size=N/A time=00:03:24.53 bitrate=N/A dup=8 drop=0 speed=   1x    frame= 6145 fps= 30 q=23.0 size=N/A time=00:03:25.03 bitrate=N/A dup=8 drop=0 speed=   1x    frame= 6159 fps= 30 q=23.0 size=N/A time=00:03:25.50 bitrate=N/A dup=8 drop=0 speed=   1x    frame= 6174 fps= 30 q=23.0 size=N/A time=00:03:26.00 bitrate=N/A dup=8 drop=0 speed=   1x    frame= 6189 fps= 30 q=23.0 size=N/A time=00:03:26.50 bitrate=N/A dup=8 drop=0 speed=   1x    frame= 6204 fps= 30 q=23.0 size=N/A time=00:03:27.00 bitrate=N/A dup=8 drop=0 speed=   1x    frame= 6219 fps= 30 q=23.0 size=N/A time=00:03:27.50 bitrate=N/A dup=8 drop=0 speed=   1x    frame= 6234 fps= 30 q=24.0 size=N/A time=00:03:28.00 bitrate=N/A dup=8 drop=0 speed=   1x    frame= 6249 fps= 30 q=24.0 size=N/A time=00:03:28.50 bitrate=N/A dup=8 drop=0 speed=   1x    frame= 6264 fps= 30 q=23.0 size=N/A time=00:03:29.00 bitrate=N/A dup=8 drop=0 speed=   1x    frame= 6279 fps= 30 q=23.0 size=N/A time=00:03:29.50 bitrate=N/A dup=8 drop=0 speed=   1x    frame= 6294 fps= 30 q=23.0 size=N/A time=00:03:30.00 bitrate=N/A dup=8 drop=0 speed=   1x    frame= 6309 fps= 30 q=23.0 size=N/A time=00:03:30.51 bitrate=N/A dup=8 drop=0 speed=   1x    frame= 6324 fps= 30 q=23.0 size=N/A time=00:03:31.01 bitrate=N/A dup=8 drop=0 speed=   1x    frame= 6339 fps= 30 q=22.0 size=N/A time=00:03:31.51 bitrate=N/A dup=8 drop=0 speed=   1x    frame= 6354 fps= 30 q=22.0 size=N/A time=00:03:32.01 bitrate=N/A dup=8 drop=0 speed=   1x    frame= 6368 fps= 30 q=22.0 size=N/A time=00:03:32.47 bitrate=N/A dup=8 drop=0 speed=   1x    frame= 6384 fps= 30 q=24.0 size=N/A time=00:03:33.01 bitrate=N/A dup=9 drop=0 speed=   1x    frame= 6399 fps= 30 q=25.0 size=N/A time=00:03:33.51 bitrate=N/A dup=9 drop=0 speed=   1x    frame= 6414 fps= 30 q=25.0 size=N/A time=00:03:34.01 bitrate=N/A dup=9 drop=0 speed=   1x    frame= 6429 fps= 30 q=24.0 size=N/A time=00:03:34.51 bitrate=N/A dup=9 drop=0 speed=   1x    frame= 6444 fps= 30 q=24.0 size=N/A time=00:03:35.01 bitrate=N/A dup=9 drop=0 speed=   1x    frame= 6459 fps= 30 q=25.0 size=N/A time=00:03:35.51 bitrate=N/A dup=9 drop=0 speed=   1x    frame= 6474 fps= 30 q=24.0 size=N/A time=00:03:36.01 bitrate=N/A dup=9 drop=0 speed=   1x    frame= 6489 fps= 30 q=24.0 size=N/A time=00:03:36.51 bitrate=N/A dup=9 drop=0 speed=   1x    frame= 6504 fps= 30 q=25.0 size=N/A time=00:03:37.01 bitrate=N/A dup=9 drop=0 speed=   1x    frame= 6519 fps= 30 q=24.0 size=N/A time=00:03:37.51 bitrate=N/A dup=9 drop=0 speed=   1x    frame= 6534 fps= 30 q=25.0 size=N/A time=00:03:38.01 bitrate=N/A dup=9 drop=0 speed=   1x    frame= 6549 fps= 30 q=24.0 size=N/A time=00:03:38.51 bitrate=N/A dup=9 drop=0 speed=   1x    frame= 6564 fps= 30 q=24.0 size=N/A time=00:03:39.01 bitrate=N/A dup=9 drop=0 speed=   1x    frame= 6579 fps= 30 q=24.0 size=N/A time=00:03:39.51 bitrate=N/A dup=9 drop=0 speed=   1x    frame= 6594 fps= 30 q=24.0 size=N/A time=00:03:40.01 bitrate=N/A dup=9 drop=0 speed=   1x    frame= 6609 fps= 30 q=25.0 size=N/A time=00:03:40.52 bitrate=N/A dup=9 drop=0 speed=   1x    frame= 6624 fps= 30 q=24.0 size=N/A time=00:03:41.02 bitrate=N/A dup=9 drop=0 speed=   1x    frame= 6639 fps= 30 q=24.0 size=N/A time=00:03:41.52 bitrate=N/A dup=9 drop=0 speed=   1x    frame= 6654 fps= 30 q=24.0 size=N/A time=00:03:42.02 bitrate=N/A dup=9 drop=0 speed=   1x    frame= 6669 fps= 30 q=23.0 size=N/A time=00:03:42.52 bitrate=N/A dup=9 drop=0 speed=   1x    frame= 6684 fps= 30 q=24.0 size=N/A time=00:03:43.02 bitrate=N/A dup=9 drop=0 speed=   1x    frame= 6699 fps= 30 q=24.0 size=N/A time=00:03:43.52 bitrate=N/A dup=9 drop=0 speed=   1x    frame= 6714 fps= 30 q=24.0 size=N/A time=00:03:44.02 bitrate=N/A dup=9 drop=0 speed=   1x    frame= 6729 fps= 30 q=23.0 size=N/A time=00:03:44.52 bitrate=N/A dup=9 drop=0 speed=   1x    frame= 6744 fps= 30 q=23.0 size=N/A time=00:03:45.02 bitrate=N/A dup=9 drop=0 speed=   1x    frame= 6759 fps= 30 q=24.0 size=N/A time=00:03:45.52 bitrate=N/A dup=9 drop=0 speed=   1x    frame= 6774 fps= 30 q=24.0 size=N/A time=00:03:46.02 bitrate=N/A dup=9 drop=0 speed=   1x    frame= 6789 fps= 30 q=24.0 size=N/A time=00:03:46.52 bitrate=N/A dup=9 drop=0 speed=   1x    frame= 6804 fps= 30 q=23.0 size=N/A time=00:03:47.02 bitrate=N/A dup=9 drop=0 speed=   1x    frame= 6819 fps= 30 q=24.0 size=N/A time=00:03:47.52 bitrate=N/A dup=9 drop=0 speed=   1x    frame= 6834 fps= 30 q=24.0 size=N/A time=00:03:48.02 bitrate=N/A dup=9 drop=0 speed=   1x    frame= 6849 fps= 30 q=23.0 size=N/A time=00:03:48.52 bitrate=N/A dup=9 drop=0 speed=   1x    frame= 6864 fps= 30 q=23.0 size=N/A time=00:03:49.02 bitrate=N/A dup=9 drop=0 speed=   1x    frame= 6879 fps= 30 q=23.0 size=N/A time=00:03:49.52 bitrate=N/A dup=9 drop=0 speed=   1x    frame= 6894 fps= 30 q=23.0 size=N/A time=00:03:50.02 bitrate=N/A dup=9 drop=0 speed=   1x    frame= 6909 fps= 30 q=23.0 size=N/A time=00:03:50.53 bitrate=N/A dup=9 drop=0 speed=   1x    frame= 6924 fps= 30 q=23.0 size=N/A time=00:03:51.03 bitrate=N/A dup=9 drop=0 speed=   1x    frame= 6939 fps= 30 q=23.0 size=N/A time=00:03:51.53 bitrate=N/A dup=9 drop=0 speed=   1x    frame= 6954 fps= 30 q=23.0 size=N/A time=00:03:52.03 bitrate=N/A dup=9 drop=0 speed=   1x    frame= 6969 fps= 30 q=23.0 size=N/A time=00:03:52.53 bitrate=N/A dup=9 drop=0 speed=   1x    frame= 6984 fps= 30 q=23.0 size=N/A time=00:03:53.03 bitrate=N/A dup=9 drop=0 speed=   1x    frame= 6999 fps= 30 q=23.0 size=N/A time=00:03:53.53 bitrate=N/A dup=9 drop=0 speed=   1x    frame= 7014 fps= 30 q=23.0 size=N/A time=00:03:54.03 bitrate=N/A dup=9 drop=0 speed=   1x    frame= 7029 fps= 30 q=24.0 size=N/A time=00:03:54.53 bitrate=N/A dup=9 drop=0 speed=   1x    frame= 7044 fps= 30 q=24.0 size=N/A time=00:03:55.03 bitrate=N/A dup=9 drop=0 speed=   1x    frame= 7059 fps= 30 q=23.0 size=N/A time=00:03:55.53 bitrate=N/A dup=9 drop=0 speed=   1x    frame= 7074 fps= 30 q=23.0 size=N/A time=00:03:56.03 bitrate=N/A dup=9 drop=0 speed=   1x    frame= 7089 fps= 30 q=23.0 size=N/A time=00:03:56.53 bitrate=N/A dup=9 drop=0 speed=   1x    frame= 7104 fps= 30 q=23.0 size=N/A time=00:03:57.03 bitrate=N/A dup=9 drop=0 speed=   1x    frame= 7119 fps= 30 q=23.0 size=N/A time=00:03:57.53 bitrate=N/A dup=9 drop=0 speed=   1x    frame= 7134 fps= 30 q=22.0 size=N/A time=00:03:58.03 bitrate=N/A dup=9 drop=0 speed=   1x    frame= 7149 fps= 30 q=22.0 size=N/A time=00:03:58.53 bitrate=N/A dup=9 drop=0 speed=   1x    frame= 7164 fps= 30 q=22.0 size=N/A time=00:03:59.03 bitrate=N/A dup=9 drop=0 speed=   1x    frame= 7179 fps= 30 q=24.0 size=N/A time=00:03:59.53 bitrate=N/A dup=10 drop=0 speed=   1x    frame= 7194 fps= 30 q=25.0 size=N/A time=00:04:00.03 bitrate=N/A dup=10 drop=0 speed=   1x    frame= 7209 fps= 30 q=25.0 size=N/A time=00:04:00.54 bitrate=N/A dup=10 drop=0 speed=   1x    frame= 7224 fps= 30 q=24.0 size=N/A time=00:04:01.04 bitrate=N/A dup=10 drop=0 speed=   1x    frame= 7239 fps= 30 q=25.0 size=N/A time=00:04:01.54 bitrate=N/A dup=10 drop=0 speed=   1x    frame= 7253 fps= 30 q=25.0 size=N/A time=00:04:02.04 bitrate=N/A dup=10 drop=0 speed=   1x    frame= 7269 fps= 30 q=24.0 size=N/A time=00:04:02.54 bitrate=N/A dup=10 drop=0 speed=   1x    frame= 7284 fps= 30 q=24.0 size=N/A time=00:04:03.04 bitrate=N/A dup=10 drop=0 speed=   1x    frame= 7298 fps= 30 q=24.0 size=N/A time=00:04:03.50 bitrate=N/A dup=10 drop=0 speed=   1x    frame= 7313 fps= 30 q=24.0 size=N/A time=00:04:04.01 bitrate=N/A dup=10 drop=0 speed=   1x    frame= 7328 fps= 30 q=25.0 size=N/A time=00:04:04.51 bitrate=N/A dup=10 drop=0 speed=   1x    frame= 7343 fps= 30 q=24.0 size=N/A time=00:04:05.01 bitrate=N/A dup=10 drop=0 speed=   1x    frame= 7358 fps= 30 q=24.0 size=N/A time=00:04:05.51 bitrate=N/A dup=10 drop=0 speed=   1x    frame= 7373 fps= 30 q=24.0 size=N/A time=00:04:06.01 bitrate=N/A dup=10 drop=0 speed=   1x    frame= 7388 fps= 30 q=25.0 size=N/A time=00:04:06.51 bitrate=N/A dup=10 drop=0 speed=   1x    frame= 7403 fps= 30 q=24.0 size=N/A time=00:04:07.01 bitrate=N/A dup=10 drop=0 speed=   1x    frame= 7418 fps= 30 q=24.0 size=N/A time=00:04:07.51 bitrate=N/A dup=10 drop=0 speed=   1x    frame= 7433 fps= 30 q=24.0 size=N/A time=00:04:08.01 bitrate=N/A dup=10 drop=0 speed=   1x    frame= 7448 fps= 30 q=24.0 size=N/A time=00:04:08.51 bitrate=N/A dup=10 drop=0 speed=   1x    frame= 7463 fps= 30 q=24.0 size=N/A time=00:04:09.01 bitrate=N/A dup=10 drop=0 speed=   1x    frame= 7478 fps= 30 q=24.0 size=N/A time=00:04:09.51 bitrate=N/A dup=10 drop=0 speed=   1x    frame= 7493 fps= 30 q=25.0 size=N/A time=00:04:10.01 bitrate=N/A dup=10 drop=0 speed=   1x    frame= 7508 fps= 30 q=24.0 size=N/A time=00:04:10.51 bitrate=N/A dup=10 drop=0 speed=   1x    frame= 7523 fps= 30 q=24.0 size=N/A time=00:04:11.01 bitrate=N/A dup=10 drop=0 speed=   1x    frame= 7538 fps= 30 q=24.0 size=N/A time=00:04:11.51 bitrate=N/A dup=10 drop=0 speed=   1x    frame= 7553 fps= 30 q=25.0 size=N/A time=00:04:12.01 bitrate=N/A dup=10 drop=0 speed=   1x    frame= 7568 fps= 30 q=24.0 size=N/A time=00:04:12.51 bitrate=N/A dup=10 drop=0 speed=   1x    frame= 7583 fps= 30 q=24.0 size=N/A time=00:04:13.01 bitrate=N/A dup=10 drop=0 speed=   1x    frame= 7598 fps= 30 q=23.0 size=N/A time=00:04:13.51 bitrate=N/A dup=10 drop=0 speed=   1x    frame= 7613 fps= 30 q=24.0 size=N/A time=00:04:14.02 bitrate=N/A dup=10 drop=0 speed=   1x    frame= 7628 fps= 30 q=23.0 size=N/A time=00:04:14.52 bitrate=N/A dup=10 drop=0 speed=   1x    frame= 7643 fps= 30 q=24.0 size=N/A time=00:04:15.02 bitrate=N/A dup=10 drop=0 speed=   1x    frame= 7658 fps= 30 q=23.0 size=N/A time=00:04:15.52 bitrate=N/A dup=10 drop=0 speed=   1x    frame= 7673 fps= 30 q=23.0 size=N/A time=00:04:16.02 bitrate=N/A dup=10 drop=0 speed=   1x    frame= 7688 fps= 30 q=23.0 size=N/A time=00:04:16.52 bitrate=N/A dup=10 drop=0 speed=   1x    frame= 7703 fps= 30 q=23.0 size=N/A time=00:04:17.02 bitrate=N/A dup=10 drop=0 speed=   1x    frame= 7718 fps= 30 q=23.0 size=N/A time=00:04:17.52 bitrate=N/A dup=10 drop=0 speed=   1x    frame= 7733 fps= 30 q=23.0 size=N/A time=00:04:18.02 bitrate=N/A dup=10 drop=0 speed=   1x    frame= 7748 fps= 30 q=23.0 size=N/A time=00:04:18.52 bitrate=N/A dup=10 drop=0 speed=   1x    frame= 7763 fps= 30 q=24.0 size=N/A time=00:04:19.02 bitrate=N/A dup=10 drop=0 speed=   1x    frame= 7778 fps= 30 q=23.0 size=N/A time=00:04:19.52 bitrate=N/A dup=10 drop=0 speed=   1x    frame= 7793 fps= 30 q=23.0 size=N/A time=00:04:20.02 bitrate=N/A dup=10 drop=0 speed=   1x    frame= 7808 fps= 30 q=23.0 size=N/A time=00:04:20.52 bitrate=N/A dup=10 drop=0 speed=   1x    frame= 7823 fps= 30 q=24.0 size=N/A time=00:04:21.02 bitrate=N/A dup=10 drop=0 speed=   1x    frame= 7838 fps= 30 q=24.0 size=N/A time=00:04:21.52 bitrate=N/A dup=10 drop=0 speed=   1x    frame= 7853 fps= 30 q=23.0 size=N/A time=00:04:22.02 bitrate=N/A dup=10 drop=0 speed=   1x    frame= 7868 fps= 30 q=24.0 size=N/A time=00:04:22.52 bitrate=N/A dup=10 drop=0 speed=   1x    frame= 7883 fps= 30 q=23.0 size=N/A time=00:04:23.02 bitrate=N/A dup=10 drop=0 speed=   1x    frame= 7898 fps= 30 q=23.0 size=N/A time=00:04:23.52 bitrate=N/A dup=10 drop=0 speed=   1x    frame= 7913 fps= 30 q=23.0 size=N/A time=00:04:24.03 bitrate=N/A dup=10 drop=0 speed=   1x    frame= 7928 fps= 30 q=22.0 size=N/A time=00:04:24.53 bitrate=N/A dup=10 drop=0 speed=   1x    frame= 7943 fps= 30 q=22.0 size=N/A time=00:04:25.03 bitrate=N/A dup=10 drop=0 speed=   1x    frame= 7960 fps= 30 q=22.0 size=N/A time=00:04:25.58 bitrate=N/A dup=10 drop=0 speed=   1x    frame= 7973 fps= 30 q=24.0 size=N/A time=00:04:26.03 bitrate=N/A dup=11 drop=0 speed=   1x    frame= 7988 fps= 30 q=24.0 size=N/A time=00:04:26.53 bitrate=N/A dup=11 drop=0 speed=   1x    frame= 8003 fps= 30 q=26.0 size=N/A time=00:04:27.03 bitrate=N/A dup=11 drop=0 speed=   1x    frame= 8018 fps= 30 q=25.0 size=N/A time=00:04:27.53 bitrate=N/A dup=11 drop=0 speed=   1x    frame= 8033 fps= 30 q=25.0 size=N/A time=00:04:28.03 bitrate=N/A dup=11 drop=0 speed=   1x    frame= 8048 fps= 30 q=25.0 size=N/A time=00:04:28.53 bitrate=N/A dup=11 drop=0 speed=   1x    frame= 8063 fps= 30 q=24.0 size=N/A time=00:04:29.03 bitrate=N/A dup=11 drop=0 speed=   1x    frame= 8078 fps= 30 q=24.0 size=N/A time=00:04:29.53 bitrate=N/A dup=11 drop=0 speed=   1x    frame= 8093 fps= 30 q=25.0 size=N/A time=00:04:30.03 bitrate=N/A dup=11 drop=0 speed=   1x    frame= 8108 fps= 30 q=24.0 size=N/A time=00:04:30.53 bitrate=N/A dup=11 drop=0 speed=   1x    frame= 8123 fps= 30 q=25.0 size=N/A time=00:04:31.03 bitrate=N/A dup=11 drop=0 speed=   1x    frame= 8138 fps= 30 q=24.0 size=N/A time=00:04:31.53 bitrate=N/A dup=11 drop=0 speed=   1x    frame= 8153 fps= 30 q=24.0 size=N/A time=00:04:32.03 bitrate=N/A dup=11 drop=0 speed=   1x    frame= 8168 fps= 30 q=24.0 size=N/A time=00:04:32.53 bitrate=N/A dup=11 drop=0 speed=   1x    frame= 8183 fps= 30 q=25.0 size=N/A time=00:04:33.03 bitrate=N/A dup=11 drop=0 speed=   1x    frame= 8198 fps= 30 q=25.0 size=N/A time=00:04:33.53 bitrate=N/A dup=11 drop=0 speed=   1x    frame= 8213 fps= 30 q=24.0 size=N/A time=00:04:34.04 bitrate=N/A dup=11 drop=0 speed=   1x    frame= 8228 fps= 30 q=24.0 size=N/A time=00:04:34.54 bitrate=N/A dup=11 drop=0 speed=   1x    frame= 8243 fps= 30 q=24.0 size=N/A time=00:04:35.04 bitrate=N/A dup=11 drop=0 speed=   1x    frame= 8258 fps= 30 q=24.0 size=N/A time=00:04:35.54 bitrate=N/A dup=11 drop=0 speed=   1x    frame= 8272 fps= 30 q=23.0 size=N/A time=00:04:36.00 bitrate=N/A dup=11 drop=0 speed=   1x    frame= 8288 fps= 30 q=25.0 size=N/A time=00:04:36.54 bitrate=N/A dup=11 drop=0 speed=   1x    frame= 8303 fps= 30 q=23.0 size=N/A time=00:04:37.04 bitrate=N/A dup=11 drop=0 speed=   1x    frame= 8318 fps= 30 q=23.0 size=N/A time=00:04:37.54 bitrate=N/A dup=11 drop=0 speed=   1x    frame= 8333 fps= 30 q=24.0 size=N/A time=00:04:38.04 bitrate=N/A dup=11 drop=0 speed=   1x    frame= 8348 fps= 30 q=25.0 size=N/A time=00:04:38.54 bitrate=N/A dup=11 drop=0 speed=   1x    frame= 8363 fps= 30 q=24.0 size=N/A time=00:04:39.04 bitrate=N/A dup=11 drop=0 speed=   1x    frame= 8378 fps= 30 q=24.0 size=N/A time=00:04:39.54 bitrate=N/A dup=11 drop=0 speed=   1x    frame= 8393 fps= 30 q=23.0 size=N/A time=00:04:40.04 bitrate=N/A dup=11 drop=0 speed=   1x    frame= 8408 fps= 30 q=24.0 size=N/A time=00:04:40.54 bitrate=N/A dup=11 drop=0 speed=   1x    frame= 8422 fps= 30 q=23.0 size=N/A time=00:04:41.01 bitrate=N/A dup=11 drop=0 speed=   1x    frame= 8437 fps= 30 q=24.0 size=N/A time=00:04:41.51 bitrate=N/A dup=11 drop=0 speed=   1x    frame= 8452 fps= 30 q=23.0 size=N/A time=00:04:42.01 bitrate=N/A dup=11 drop=0 speed=   1x    frame= 8467 fps= 30 q=23.0 size=N/A time=00:04:42.51 bitrate=N/A dup=11 drop=0 speed=   1x    frame= 8482 fps= 30 q=23.0 size=N/A time=00:04:43.01 bitrate=N/A dup=11 drop=0 speed=   1x    frame= 8497 fps= 30 q=23.0 size=N/A time=00:04:43.51 bitrate=N/A dup=11 drop=0 speed=   1x    frame= 8512 fps= 30 q=22.0 size=N/A time=00:04:44.01 bitrate=N/A dup=11 drop=0 speed=   1x    frame= 8527 fps= 30 q=23.0 size=N/A time=00:04:44.51 bitrate=N/A dup=11 drop=0 speed=   1x    frame= 8542 fps= 30 q=23.0 size=N/A time=00:04:45.01 bitrate=N/A dup=11 drop=0 speed=   1x    frame= 8557 fps= 30 q=23.0 size=N/A time=00:04:45.51 bitrate=N/A dup=11 drop=0 speed=   1x    frame= 8572 fps= 30 q=23.0 size=N/A time=00:04:46.01 bitrate=N/A dup=11 drop=0 speed=   1x    frame= 8587 fps= 30 q=23.0 size=N/A time=00:04:46.51 bitrate=N/A dup=11 drop=0 speed=   1x    frame= 8602 fps= 30 q=23.0 size=N/A time=00:04:47.02 bitrate=N/A dup=11 drop=0 speed=   1x    frame= 8617 fps= 30 q=23.0 size=N/A time=00:04:47.52 bitrate=N/A dup=11 drop=0 speed=   1x    frame= 8632 fps= 30 q=23.0 size=N/A time=00:04:48.02 bitrate=N/A dup=11 drop=0 speed=   1x    frame= 8647 fps= 30 q=24.0 size=N/A time=00:04:48.52 bitrate=N/A dup=11 drop=0 speed=   1x    frame= 8662 fps= 30 q=24.0 size=N/A time=00:04:49.02 bitrate=N/A dup=11 drop=0 speed=   1x    frame= 8677 fps= 30 q=23.0 size=N/A time=00:04:49.52 bitrate=N/A dup=11 drop=0 speed=   1x    frame= 8692 fps= 30 q=23.0 size=N/A time=00:04:50.02 bitrate=N/A dup=11 drop=0 speed=   1x    frame= 8707 fps= 30 q=23.0 size=N/A time=00:04:50.52 bitrate=N/A dup=11 drop=0 speed=   1x    frame= 8722 fps= 30 q=22.0 size=N/A time=00:04:51.02 bitrate=N/A dup=11 drop=0 speed=   1x    frame= 8737 fps= 30 q=22.0 size=N/A time=00:04:51.52 bitrate=N/A dup=11 drop=0 speed=   1x    frame= 8751 fps= 30 q=19.0 size=N/A time=00:04:51.99 bitrate=N/A dup=11 drop=0 speed=   1x    frame= 8767 fps= 30 q=24.0 size=N/A time=00:04:52.52 bitrate=N/A dup=12 drop=0 speed=   1x    frame= 8782 fps= 30 q=24.0 size=N/A time=00:04:53.02 bitrate=N/A dup=12 drop=0 speed=   1x    frame= 8797 fps= 30 q=25.0 size=N/A time=00:04:53.52 bitrate=N/A dup=12 drop=0 speed=   1x    frame= 8812 fps= 30 q=25.0 size=N/A time=00:04:54.02 bitrate=N/A dup=12 drop=0 speed=   1x    frame= 8827 fps= 30 q=24.0 size=N/A time=00:04:54.52 bitrate=N/A dup=12 drop=0 speed=   1x    frame= 8842 fps= 30 q=25.0 size=N/A time=00:04:55.02 bitrate=N/A dup=12 drop=0 speed=   1x    frame= 8857 fps= 30 q=24.0 size=N/A time=00:04:55.52 bitrate=N/A dup=12 drop=0 speed=   1x    frame= 8872 fps= 30 q=25.0 size=N/A time=00:04:56.02 bitrate=N/A dup=12 drop=0 speed=   1x    frame= 8887 fps= 30 q=25.0 size=N/A time=00:04:56.52 bitrate=N/A dup=12 drop=0 speed=   1x    frame= 8902 fps= 30 q=24.0 size=N/A time=00:04:57.03 bitrate=N/A dup=12 drop=0 speed=   1x    frame= 8917 fps= 30 q=25.0 size=N/A time=00:04:57.53 bitrate=N/A dup=12 drop=0 speed=   1x    frame= 8932 fps= 30 q=24.0 size=N/A time=00:04:58.03 bitrate=N/A dup=12 drop=0 speed=   1x    frame= 8947 fps= 30 q=24.0 size=N/A time=00:04:58.53 bitrate=N/A dup=12 drop=0 speed=   1x    frame= 8962 fps= 30 q=24.0 size=N/A time=00:04:59.03 bitrate=N/A dup=12 drop=0 speed=   1x    frame= 8977 fps= 30 q=24.0 size=N/A time=00:04:59.53 bitrate=N/A dup=12 drop=0 speed=   1x    frame= 8992 fps= 30 q=24.0 size=N/A time=00:05:00.03 bitrate=N/A dup=12 drop=0 speed=   1x    frame= 9007 fps= 30 q=24.0 size=N/A time=00:05:00.53 bitrate=N/A dup=12 drop=0 speed=   1x    frame= 9022 fps= 30 q=24.0 size=N/A time=00:05:01.03 bitrate=N/A dup=12 drop=0 speed=   1x    frame= 9037 fps= 30 q=24.0 size=N/A time=00:05:01.53 bitrate=N/A dup=12 drop=0 speed=   1x    frame= 9052 fps= 30 q=24.0 size=N/A time=00:05:02.03 bitrate=N/A dup=12 drop=0 speed=   1x    frame= 9067 fps= 30 q=23.0 size=N/A time=00:05:02.53 bitrate=N/A dup=12 drop=0 speed=   1x    frame= 9082 fps= 30 q=25.0 size=N/A time=00:05:03.03 bitrate=N/A dup=12 drop=0 speed=   1x    frame= 9097 fps= 30 q=24.0 size=N/A time=00:05:03.53 bitrate=N/A dup=12 drop=0 speed=   1x    frame= 9112 fps= 30 q=24.0 size=N/A time=00:05:04.03 bitrate=N/A dup=12 drop=0 speed=   1x    frame= 9127 fps= 30 q=24.0 size=N/A time=00:05:04.53 bitrate=N/A dup=12 drop=0 speed=   1x    frame= 9142 fps= 30 q=24.0 size=N/A time=00:05:05.03 bitrate=N/A dup=12 drop=0 speed=   1x    frame= 9157 fps= 30 q=24.0 size=N/A time=00:05:05.53 bitrate=N/A dup=12 drop=0 speed=   1x    frame= 9172 fps= 30 q=24.0 size=N/A time=00:05:06.03 bitrate=N/A dup=12 drop=0 speed=   1x    frame= 9187 fps= 30 q=23.0 size=N/A time=00:05:06.53 bitrate=N/A dup=12 drop=0 speed=   1x    frame= 9202 fps= 30 q=24.0 size=N/A time=00:05:07.04 bitrate=N/A dup=12 drop=0 speed=   1x    frame= 9217 fps= 30 q=24.0 size=N/A time=00:05:07.54 bitrate=N/A dup=12 drop=0 speed=   1x    frame= 9232 fps= 30 q=24.0 size=N/A time=00:05:08.04 bitrate=N/A dup=12 drop=0 speed=   1x    frame= 9247 fps= 30 q=23.0 size=N/A time=00:05:08.54 bitrate=N/A dup=12 drop=0 speed=   1x    frame= 9262 fps= 30 q=23.0 size=N/A time=00:05:09.04 bitrate=N/A dup=12 drop=0 speed=   1x    frame= 9277 fps= 30 q=23.0 size=N/A time=00:05:09.54 bitrate=N/A dup=12 drop=0 speed=   1x    frame= 9292 fps= 30 q=23.0 size=N/A time=00:05:10.04 bitrate=N/A dup=12 drop=0 speed=   1x    frame= 9307 fps= 30 q=23.0 size=N/A time=00:05:10.54 bitrate=N/A dup=12 drop=0 speed=   1x    frame= 9322 fps= 30 q=23.0 size=N/A time=00:05:11.04 bitrate=N/A dup=12 drop=0 speed=   1x    frame= 9337 fps= 30 q=23.0 size=N/A time=00:05:11.54 bitrate=N/A dup=12 drop=0 speed=   1x    frame= 9352 fps= 30 q=23.0 size=N/A time=00:05:12.04 bitrate=N/A dup=12 drop=0 speed=   1x    frame= 9367 fps= 30 q=24.0 size=N/A time=00:05:12.54 bitrate=N/A dup=12 drop=0 speed=   1x    frame= 9382 fps= 30 q=23.0 size=N/A time=00:05:13.04 bitrate=N/A dup=12 drop=0 speed=   1x    frame= 9397 fps= 30 q=23.0 size=N/A time=00:05:13.54 bitrate=N/A dup=12 drop=0 speed=   1x    frame= 9412 fps= 30 q=23.0 size=N/A time=00:05:14.04 bitrate=N/A dup=12 drop=0 speed=   1x    frame= 9427 fps= 30 q=23.0 size=N/A time=00:05:14.54 bitrate=N/A dup=12 drop=0 speed=   1x    frame= 9442 fps= 30 q=24.0 size=N/A time=00:05:15.04 bitrate=N/A dup=12 drop=0 speed=   1x    frame= 9457 fps= 30 q=23.0 size=N/A time=00:05:15.54 bitrate=N/A dup=12 drop=0 speed=   1x    frame= 9472 fps= 30 q=23.0 size=N/A time=00:05:16.04 bitrate=N/A dup=12 drop=0 speed=   1x    frame= 9487 fps= 30 q=23.0 size=N/A time=00:05:16.54 bitrate=N/A dup=12 drop=0 speed=   1x    frame= 9502 fps= 30 q=25.0 size=N/A time=00:05:17.05 bitrate=N/A dup=12 drop=0 speed=   1x    frame= 9517 fps= 30 q=22.0 size=N/A time=00:05:17.55 bitrate=N/A dup=12 drop=0 speed=   1x    frame= 9532 fps= 30 q=22.0 size=N/A time=00:05:18.05 bitrate=N/A dup=12 drop=0 speed=   1x    frame= 9546 fps= 30 q=22.0 size=N/A time=00:05:18.51 bitrate=N/A dup=12 drop=0 speed=   1x    frame= 9561 fps= 30 q=24.0 size=N/A time=00:05:19.01 bitrate=N/A dup=13 drop=0 speed=   1x    frame= 9576 fps= 30 q=24.0 size=N/A time=00:05:19.51 bitrate=N/A dup=13 drop=0 speed=   1x    frame= 9591 fps= 30 q=25.0 size=N/A time=00:05:20.01 bitrate=N/A dup=13 drop=0 speed=   1x    frame= 9607 fps= 30 q=25.0 size=N/A time=00:05:20.55 bitrate=N/A dup=13 drop=0 speed=   1x    frame= 9621 fps= 30 q=26.0 size=N/A time=00:05:21.02 bitrate=N/A dup=13 drop=0 speed=   1x    frame= 9636 fps= 30 q=25.0 size=N/A time=00:05:21.52 bitrate=N/A dup=13 drop=0 speed=   1x    frame= 9652 fps= 30 q=24.0 size=N/A time=00:05:22.05 bitrate=N/A dup=13 drop=0 speed=   1x    frame= 9667 fps= 30 q=24.0 size=N/A time=00:05:22.55 bitrate=N/A dup=13 drop=0 speed=   1x    frame= 9681 fps= 30 q=25.0 size=N/A time=00:05:23.02 bitrate=N/A dup=13 drop=0 speed=   1x    frame= 9697 fps= 30 q=24.0 size=N/A time=00:05:23.55 bitrate=N/A dup=13 drop=0 speed=   1x    frame= 9711 fps= 30 q=25.0 size=N/A time=00:05:24.02 bitrate=N/A dup=13 drop=0 speed=   1x    frame= 9727 fps= 30 q=24.0 size=N/A time=00:05:24.55 bitrate=N/A dup=13 drop=0 speed=   1x    frame= 9742 fps= 30 q=24.0 size=N/A time=00:05:25.05 bitrate=N/A dup=13 drop=0 speed=   1x    frame= 9756 fps= 30 q=24.0 size=N/A time=00:05:25.52 bitrate=N/A dup=13 drop=0 speed=   1x    frame= 9771 fps= 30 q=24.0 size=N/A time=00:05:26.02 bitrate=N/A dup=13 drop=0 speed=   1x    frame= 9786 fps= 30 q=23.0 size=N/A time=00:05:26.52 bitrate=N/A dup=13 drop=0 speed=   1x    frame= 9801 fps= 30 q=25.0 size=N/A time=00:05:27.02 bitrate=N/A dup=13 drop=0 speed=   1x    frame= 9817 fps= 30 q=24.0 size=N/A time=00:05:27.56 bitrate=N/A dup=13 drop=0 speed=   1x    frame= 9831 fps= 30 q=25.0 size=N/A time=00:05:28.02 bitrate=N/A dup=13 drop=0 speed=   1x    frame= 9846 fps= 30 q=23.0 size=N/A time=00:05:28.52 bitrate=N/A dup=13 drop=0 speed=   1x    frame= 9861 fps= 30 q=23.0 size=N/A time=00:05:29.02 bitrate=N/A dup=13 drop=0 speed=   1x    frame= 9876 fps= 30 q=24.0 size=N/A time=00:05:29.52 bitrate=N/A dup=13 drop=0 speed=   1x    frame= 9891 fps= 30 q=24.0 size=N/A time=00:05:30.02 bitrate=N/A dup=13 drop=0 speed=   1x    frame= 9906 fps= 30 q=23.0 size=N/A time=00:05:30.53 bitrate=N/A dup=13 drop=0 speed=   1x    frame= 9921 fps= 30 q=24.0 size=N/A time=00:05:31.03 bitrate=N/A dup=13 drop=0 speed=   1x    frame= 9936 fps= 30 q=24.0 size=N/A time=00:05:31.53 bitrate=N/A dup=13 drop=0 speed=   1x    frame= 9951 fps= 30 q=24.0 size=N/A time=00:05:32.03 bitrate=N/A dup=13 drop=0 speed=   1x    frame= 9966 fps= 30 q=23.0 size=N/A time=00:05:32.53 bitrate=N/A dup=13 drop=0 speed=   1x    frame= 9981 fps= 30 q=23.0 size=N/A time=00:05:33.03 bitrate=N/A dup=13 drop=0 speed=   1x    frame= 9996 fps= 30 q=24.0 size=N/A time=00:05:33.53 bitrate=N/A dup=13 drop=0 speed=   1x    frame=10011 fps= 30 q=24.0 size=N/A time=00:05:34.03 bitrate=N/A dup=13 drop=0 speed=   1x    frame=10026 fps= 30 q=24.0 size=N/A time=00:05:34.53 bitrate=N/A dup=13 drop=0 speed=   1x    frame=10041 fps= 30 q=23.0 size=N/A time=00:05:35.03 bitrate=N/A dup=13 drop=0 speed=   1x    frame=10056 fps= 30 q=23.0 size=N/A time=00:05:35.53 bitrate=N/A dup=13 drop=0 speed=   1x    frame=10071 fps= 30 q=23.0 size=N/A time=00:05:36.03 bitrate=N/A dup=13 drop=0 speed=   1x    frame=10086 fps= 30 q=23.0 size=N/A time=00:05:36.53 bitrate=N/A dup=13 drop=0 speed=   1x    frame=10101 fps= 30 q=23.0 size=N/A time=00:05:37.03 bitrate=N/A dup=13 drop=0 speed=   1x    frame=10116 fps= 30 q=23.0 size=N/A time=00:05:37.53 bitrate=N/A dup=13 drop=0 speed=   1x    frame=10131 fps= 30 q=23.0 size=N/A time=00:05:38.03 bitrate=N/A dup=13 drop=0 speed=   1x    frame=10146 fps= 30 q=23.0 size=N/A time=00:05:38.53 bitrate=N/A dup=13 drop=0 speed=   1x    frame=10161 fps= 30 q=23.0 size=N/A time=00:05:39.03 bitrate=N/A dup=13 drop=0 speed=   1x    frame=10176 fps= 30 q=23.0 size=N/A time=00:05:39.53 bitrate=N/A dup=13 drop=0 speed=   1x    frame=10191 fps= 30 q=23.0 size=N/A time=00:05:40.03 bitrate=N/A dup=13 drop=0 speed=   1x    frame=10206 fps= 30 q=23.0 size=N/A time=00:05:40.54 bitrate=N/A dup=13 drop=0 speed=   1x    frame=10221 fps= 30 q=23.0 size=N/A time=00:05:41.04 bitrate=N/A dup=13 drop=0 speed=   1x    frame=10236 fps= 30 q=24.0 size=N/A time=00:05:41.54 bitrate=N/A dup=13 drop=0 speed=   1x    frame=10251 fps= 30 q=21.0 size=N/A time=00:05:42.04 bitrate=N/A dup=13 drop=0 speed=   1x    frame=10266 fps= 30 q=23.0 size=N/A time=00:05:42.54 bitrate=N/A dup=13 drop=0 speed=   1x    frame=10281 fps= 30 q=23.0 size=N/A time=00:05:43.04 bitrate=N/A dup=13 drop=0 speed=   1x    frame=10296 fps= 30 q=23.0 size=N/A time=00:05:43.54 bitrate=N/A dup=13 drop=0 speed=   1x    frame=10311 fps= 30 q=23.0 size=N/A time=00:05:44.04 bitrate=N/A dup=13 drop=0 speed=   1x    frame=10326 fps= 30 q=22.0 size=N/A time=00:05:44.54 bitrate=N/A dup=13 drop=0 speed=   1x    frame=10341 fps= 30 q=22.0 size=N/A time=00:05:45.04 bitrate=N/A dup=13 drop=0 speed=   1x    frame=10356 fps= 30 q=24.0 size=N/A time=00:05:45.54 bitrate=N/A dup=14 drop=0 speed=   1x    frame=10371 fps= 30 q=24.0 size=N/A time=00:05:46.04 bitrate=N/A dup=14 drop=0 speed=   1x    frame=10386 fps= 30 q=25.0 size=N/A time=00:05:46.54 bitrate=N/A dup=14 drop=0 speed=   1x    frame=10401 fps= 30 q=25.0 size=N/A time=00:05:47.04 bitrate=N/A dup=14 drop=0 speed=   1x    frame=10416 fps= 30 q=25.0 size=N/A time=00:05:47.54 bitrate=N/A dup=14 drop=0 speed=   1x    frame=10431 fps= 30 q=25.0 size=N/A time=00:05:48.04 bitrate=N/A dup=14 drop=0 speed=   1x    frame=10446 fps= 30 q=25.0 size=N/A time=00:05:48.54 bitrate=N/A dup=14 drop=0 speed=   1x    frame=10461 fps= 30 q=24.0 size=N/A time=00:05:49.04 bitrate=N/A dup=14 drop=0 speed=   1x    frame=10476 fps= 30 q=25.0 size=N/A time=00:05:49.54 bitrate=N/A dup=14 drop=0 speed=   1x    frame=10491 fps= 30 q=24.0 size=N/A time=00:05:50.04 bitrate=N/A dup=14 drop=0 speed=   1x    frame=10506 fps= 30 q=25.0 size=N/A time=00:05:50.55 bitrate=N/A dup=14 drop=0 speed=   1x    frame=10521 fps= 30 q=24.0 size=N/A time=00:05:51.05 bitrate=N/A dup=14 drop=0 speed=   1x    frame=10536 fps= 30 q=24.0 size=N/A time=00:05:51.55 bitrate=N/A dup=14 drop=0 speed=   1x    frame=10551 fps= 30 q=24.0 size=N/A time=00:05:52.05 bitrate=N/A dup=14 drop=0 speed=   1x    frame=10566 fps= 30 q=24.0 size=N/A time=00:05:52.55 bitrate=N/A dup=14 drop=0 speed=   1x    frame=10581 fps= 30 q=24.0 size=N/A time=00:05:53.05 bitrate=N/A dup=14 drop=0 speed=   1x    frame=10596 fps= 30 q=24.0 size=N/A time=00:05:53.55 bitrate=N/A dup=14 drop=0 speed=   1x    frame=10611 fps= 30 q=25.0 size=N/A time=00:05:54.05 bitrate=N/A dup=14 drop=0 speed=   1x    frame=10626 fps= 30 q=25.0 size=N/A time=00:05:54.55 bitrate=N/A dup=14 drop=0 speed=   1x    frame=10641 fps= 30 q=24.0 size=N/A time=00:05:55.05 bitrate=N/A dup=14 drop=0 speed=   1x    frame=10656 fps= 30 q=23.0 size=N/A time=00:05:55.55 bitrate=N/A dup=14 drop=0 speed=   1x    frame=10671 fps= 30 q=24.0 size=N/A time=00:05:56.05 bitrate=N/A dup=14 drop=0 speed=   1x    frame=10686 fps= 30 q=24.0 size=N/A time=00:05:56.55 bitrate=N/A dup=14 drop=0 speed=   1x    frame=10701 fps= 30 q=23.0 size=N/A time=00:05:57.05 bitrate=N/A dup=14 drop=0 speed=   1x    frame=10716 fps= 30 q=24.0 size=N/A time=00:05:57.55 bitrate=N/A dup=14 drop=0 speed=   1x    frame=10731 fps= 30 q=24.0 size=N/A time=00:05:58.05 bitrate=N/A dup=14 drop=0 speed=   1x    frame=10746 fps= 30 q=25.0 size=N/A time=00:05:58.55 bitrate=N/A dup=14 drop=0 speed=   1x    frame=10761 fps= 30 q=23.0 size=N/A time=00:05:59.05 bitrate=N/A dup=14 drop=0 speed=   1x    frame=10776 fps= 30 q=24.0 size=N/A time=00:05:59.55 bitrate=N/A dup=14 drop=0 speed=   1x    frame=10791 fps= 30 q=23.0 size=N/A time=00:06:00.05 bitrate=N/A dup=14 drop=0 speed=   1x    frame=10806 fps= 30 q=24.0 size=N/A time=00:06:00.56 bitrate=N/A dup=14 drop=0 speed=   1x    frame=10821 fps= 30 q=24.0 size=N/A time=00:06:01.06 bitrate=N/A dup=14 drop=0 speed=   1x    frame=10836 fps= 30 q=23.0 size=N/A time=00:06:01.56 bitrate=N/A dup=14 drop=0 speed=   1x    frame=10851 fps= 30 q=23.0 size=N/A time=00:06:02.06 bitrate=N/A dup=14 drop=0 speed=   1x    frame=10866 fps= 30 q=23.0 size=N/A time=00:06:02.56 bitrate=N/A dup=14 drop=0 speed=   1x    frame=10881 fps= 30 q=23.0 size=N/A time=00:06:03.06 bitrate=N/A dup=14 drop=0 speed=   1x    frame=10896 fps= 30 q=23.0 size=N/A time=00:06:03.56 bitrate=N/A dup=14 drop=0 speed=   1x    frame=10911 fps= 30 q=23.0 size=N/A time=00:06:04.06 bitrate=N/A dup=14 drop=0 speed=   1x    frame=10926 fps= 30 q=23.0 size=N/A time=00:06:04.56 bitrate=N/A dup=14 drop=0 speed=   1x    frame=10941 fps= 30 q=23.0 size=N/A time=00:06:05.06 bitrate=N/A dup=14 drop=0 speed=   1x    frame=10956 fps= 30 q=23.0 size=N/A time=00:06:05.56 bitrate=N/A dup=14 drop=0 speed=   1x    frame=10971 fps= 30 q=23.0 size=N/A time=00:06:06.06 bitrate=N/A dup=14 drop=0 speed=   1x    frame=10986 fps= 30 q=24.0 size=N/A time=00:06:06.56 bitrate=N/A dup=14 drop=0 speed=   1x    frame=11001 fps= 30 q=20.0 size=N/A time=00:06:07.06 bitrate=N/A dup=14 drop=0 speed=   1x    frame=11016 fps= 30 q=24.0 size=N/A time=00:06:07.56 bitrate=N/A dup=14 drop=0 speed=   1x    frame=11030 fps= 30 q=24.0 size=N/A time=00:06:08.03 bitrate=N/A dup=14 drop=0 speed=   1x    frame=11045 fps= 30 q=23.0 size=N/A time=00:06:08.53 bitrate=N/A dup=14 drop=0 speed=   1x    frame=11060 fps= 30 q=23.0 size=N/A time=00:06:09.03 bitrate=N/A dup=14 drop=0 speed=   1x    frame=11075 fps= 30 q=23.0 size=N/A time=00:06:09.53 bitrate=N/A dup=14 drop=0 speed=   1x    frame=11090 fps= 30 q=23.0 size=N/A time=00:06:10.03 bitrate=N/A dup=14 drop=0 speed=   1x    frame=11105 fps= 30 q=23.0 size=N/A time=00:06:10.53 bitrate=N/A dup=14 drop=0 speed=   1x    frame=11120 fps= 30 q=22.0 size=N/A time=00:06:11.03 bitrate=N/A dup=14 drop=0 speed=   1x    frame=11135 fps= 30 q=22.0 size=N/A time=00:06:11.53 bitrate=N/A dup=14 drop=0 speed=   1x    frame=11151 fps= 30 q=24.0 size=N/A time=00:06:12.07 bitrate=N/A dup=16 drop=0 speed=   1x    frame=11166 fps= 30 q=24.0 size=N/A time=00:06:12.57 bitrate=N/A dup=16 drop=0 speed=   1x    frame=11181 fps= 30 q=24.0 size=N/A time=00:06:13.07 bitrate=N/A dup=16 drop=0 speed=   1x    frame=11196 fps= 30 q=25.0 size=N/A time=00:06:13.57 bitrate=N/A dup=16 drop=0 speed=   1x    